<svg width="60" height="60" viewBox="0 0 60 60" fill="none" xmlns="http://www.w3.org/2000/svg">
<rect width="60" height="60" rx="12" fill="#2B3A67"/>
<path fill-rule="evenodd" clip-rule="evenodd" d="M13.7513 25.8044C11.708 28.7935 10.5178 32.3791 10.5178 36.2343C10.5178 46.6711 19.2402 55.1319 29.9999 55.1319C40.7595 55.1319 49.4819 46.6711 49.4819 36.2343C49.4819 32.6637 48.4611 29.3244 46.687 26.476C45.9266 14.3616 38.8331 4.86816 30.1947 4.86816C21.7167 4.86816 14.7267 14.0125 13.7513 25.8044ZM40.521 20.3266C38.4966 15.1259 34.6309 11.6109 30.1947 11.6109C25.847 11.6109 22.0472 14.9872 19.9917 20.0175C22.9168 18.3153 26.3405 17.3367 29.9999 17.3367C33.8753 17.3367 37.4865 18.4343 40.521 20.3266Z" fill="#E95F28"/>
<path d="M42.8578 38.8198L34.679 42.8235V40.9211L40.7146 38.1483L40.653 38.254V37.9867L40.7146 38.0986L34.679 35.3196V33.4235L42.8578 37.4272V38.8198Z" fill="#4B3832"/>
<path d="M32.8559 29.8052L28.7911 45.0492H27.1467L31.2115 29.8052H32.8559Z" fill="#4B3832"/>
<path d="M17.1416 38.8198V37.4272L25.3205 33.4235V35.3196L19.2849 38.0986L19.3403 37.9867V38.254L19.2849 38.1483L25.3205 40.9211V42.8235L17.1416 38.8198Z" fill="#4B3832"/>
</svg>
