<svg width="277" height="97" viewBox="0 0 277 97" fill="none" xmlns="http://www.w3.org/2000/svg">
<path d="M185.327 91.2313L167.143 36.8827L172.581 33.9822L180.558 34.7073L190.649 65.5312C191.601 68.2137 192.423 70.9394 193.115 73.7085C193.894 76.391 194.457 78.511 194.803 80.0686C195.235 78.511 195.798 76.391 196.49 73.7085C197.269 70.9394 198.048 68.2137 198.826 65.5312L213.234 19.8421H227.382L203.759 91.2313H185.327Z" fill="#4B3832"/>
<path d="M161.145 91.6263C155.418 92.5344 150.2 92.223 145.489 90.6921C140.85 89.0622 137.051 86.3791 134.093 82.6428C131.135 78.9064 129.222 74.3034 128.355 68.8337L125.427 50.3734C124.546 44.8182 124.941 39.8492 126.612 35.4665C128.269 30.9982 131.057 27.3143 134.978 24.4145C138.971 21.4158 143.83 19.4624 149.557 18.5543C155.368 17.6327 160.593 17.9868 165.233 19.6167C169.858 21.1611 173.65 23.8015 176.608 27.5378C179.553 31.1887 181.465 35.7917 182.346 41.3469L184.339 53.9102L140.752 60.8223L141.687 66.7194C142.514 71.9327 144.426 75.7035 147.424 78.0317C150.507 80.3464 154.527 81.1108 159.484 80.3247C163.501 79.6877 166.64 78.4889 168.901 76.7285C171.149 74.8825 172.356 72.5447 172.52 69.7149L186.237 67.5396C186.16 73.6848 183.843 78.9587 179.284 83.3614C174.712 87.6786 168.665 90.4336 161.145 91.6263ZM169.685 47.6917L168.994 43.333C168.18 38.2052 166.268 34.4344 163.257 32.0206C160.246 29.6069 156.262 28.7931 151.305 29.5792C146.433 30.3517 142.897 32.3582 140.695 35.5987C138.578 38.8256 137.933 43.0457 138.76 48.2591L139.268 51.464L170.527 46.3753L169.685 47.6917Z" fill="#9B8F77"/>
<path d="M81.4546 95.9809V1.228H107.933C114.164 1.228 119.572 2.43945 124.158 4.86235C128.744 7.19873 132.292 10.5302 134.802 14.8568C137.398 19.1835 138.696 24.2889 138.696 30.1731V66.906C138.696 72.7037 137.398 77.8091 134.802 82.2222C132.292 86.6354 128.744 90.0534 124.158 92.4763C119.572 94.8127 114.164 95.9809 107.933 95.9809H81.4546ZM95.4728 83.2606H107.933C113.125 83.2606 117.192 81.8328 120.135 78.9773C123.163 76.0352 124.677 72.0114 124.677 66.906V30.1731C124.677 25.1542 123.163 21.217 120.135 18.3614C117.192 15.4193 113.125 13.9482 107.933 13.9482H95.4728V83.2606Z" fill="#4B3832"/>
<path d="M266.914 89.4105C266.914 89.7067 266.807 89.9625 266.595 90.1779C266.382 90.3664 266.105 90.5145 265.765 90.6222C265.467 90.7299 265.126 90.7972 264.743 90.8242C264.403 90.878 264.062 90.905 263.722 90.905C263.254 90.905 262.7 90.8646 262.062 90.7838C261.466 90.7299 260.87 90.6357 260.275 90.501C259.679 90.3664 259.126 90.2048 258.615 90.0163C258.147 89.8009 257.785 89.5451 257.53 89.2489C257.274 88.9796 257.04 88.4814 256.827 87.7544C256.657 87.0004 256.508 86.1387 256.38 85.1693C256.253 84.173 256.146 83.1228 256.061 82.0187C255.976 80.8878 255.891 79.8106 255.806 78.7874C255.763 77.7641 255.721 76.8486 255.678 76.0407C255.678 75.206 255.678 74.5866 255.678 74.1827C255.678 72.2977 255.721 70.4801 255.806 68.7298C255.934 66.9525 256.061 65.1349 256.189 63.2769C255.976 63.2769 255.763 63.2903 255.551 63.3173C255.338 63.3442 255.125 63.3577 254.912 63.3577C254.359 63.4115 253.784 63.4519 253.189 63.4788C252.635 63.5058 252.061 63.5192 251.465 63.5192C250.741 63.5192 250.103 63.4384 249.55 63.2769C248.997 63.1153 248.72 62.7518 248.72 62.1863C248.72 61.5131 248.954 60.9745 249.422 60.5706C249.89 60.1667 250.486 59.857 251.21 59.6416C251.933 59.3993 252.72 59.2377 253.572 59.1569C254.423 59.0492 255.253 58.9684 256.061 58.9146C256.189 58.9146 256.274 58.9146 256.317 58.9146C256.359 58.8876 256.444 58.8742 256.572 58.8742C256.615 58.551 256.657 58.1606 256.7 57.7028C256.742 57.2181 256.785 56.693 256.827 56.1275C256.87 55.2389 256.934 54.2964 257.019 53.3001C257.104 52.2768 257.189 51.3074 257.274 50.3919C257.359 49.4494 257.466 48.6281 257.593 47.928C257.721 47.2009 257.849 46.6893 257.976 46.3931C258.189 46.043 258.423 45.7603 258.679 45.5448C258.977 45.3294 259.509 45.2217 260.275 45.2217C261.977 45.2217 263.296 45.5718 264.233 46.2719C265.169 46.972 265.637 47.8337 265.637 48.857C265.637 50.0418 265.573 51.2266 265.445 52.4115C265.36 53.5963 265.275 54.7946 265.19 56.0063L264.999 58.0663C266.063 57.9855 267.127 57.8644 268.19 57.7028C269.212 57.5682 270.233 57.447 271.255 57.3393C272.319 57.2316 273.34 57.1777 274.319 57.1777C275.17 57.1777 275.83 57.3258 276.298 57.622C276.766 57.8913 277 58.2952 277 58.8338C277 59.4262 276.83 60.0051 276.489 60.5706C276.149 61.1361 275.553 61.567 274.702 61.8632H274.766C274.596 61.917 274.085 61.9978 273.234 62.1055C272.382 62.1863 271.404 62.2671 270.297 62.3479C269.233 62.4287 268.169 62.5094 267.105 62.5902C266.084 62.671 265.318 62.7249 264.807 62.7518H264.743C264.658 64.2598 264.594 65.7543 264.552 67.2353C264.509 68.6894 264.488 70.1704 264.488 71.6784C264.488 73.7519 264.573 75.9599 264.743 78.3027C264.956 80.6185 265.296 82.8266 265.765 84.9269L266.275 86.7446C266.446 87.2024 266.595 87.6601 266.722 88.1179C266.85 88.5488 266.914 88.9796 266.914 89.4105Z" fill="#E95F28"/>
<path d="M246.425 57.2716C246.425 57.7063 246.259 58.026 245.928 58.2305C245.639 58.4095 245.08 58.499 244.253 58.499C243.881 58.499 243.302 58.4735 242.516 58.4223C241.73 58.3456 240.923 58.2433 240.096 58.1155C239.31 57.9876 238.607 57.8086 237.987 57.5784C237.408 57.3483 237.118 57.067 237.118 56.7345C237.118 56.6322 237.18 56.3509 237.304 55.8906C237.428 55.4048 237.573 54.8933 237.739 54.3563C237.945 53.8193 238.111 53.3334 238.235 52.8986C238.4 52.4639 238.524 52.221 238.607 52.1698V52.2082C238.814 52.0036 239.062 51.8757 239.352 51.8246C239.641 51.7735 239.931 51.7479 240.22 51.7479C240.593 51.7479 241.068 51.7862 241.647 51.863C242.268 51.9141 242.868 52.0036 243.447 52.1315C244.067 52.2338 244.625 52.3744 245.122 52.5534C245.618 52.7324 245.928 52.9242 246.052 53.1288C246.176 53.3334 246.239 53.6147 246.239 53.9727C246.28 54.3051 246.28 54.612 246.239 54.8933C246.239 54.9956 246.218 55.1235 246.176 55.2769C246.176 55.4048 246.176 55.5071 246.176 55.5838C246.176 55.7116 246.176 55.8395 246.176 55.9674C246.218 56.0952 246.259 56.2231 246.301 56.3509C246.342 56.4788 246.363 56.6195 246.363 56.7729C246.404 56.9263 246.425 57.0926 246.425 57.2716ZM248.72 87.8436C248.72 88.4318 248.493 88.8537 248.038 89.1095C247.624 89.3396 246.942 89.4547 245.99 89.4547C245.494 89.4547 244.936 89.4163 244.315 89.3396C243.736 89.2629 243.157 89.1606 242.578 89.0327C241.999 88.8793 241.461 88.7003 240.965 88.4957C240.469 88.2911 240.096 88.061 239.848 87.8053C239.683 87.6518 239.538 87.1787 239.414 86.386C239.29 85.5932 239.186 84.6087 239.104 83.4323C239.062 82.256 239 80.939 238.917 79.4814C238.876 78.0237 238.835 76.5533 238.793 75.0701C238.793 73.5869 238.793 72.142 238.793 70.7355C238.793 69.329 238.793 68.1016 238.793 67.0531V64.0995C238.793 63.8437 238.793 63.588 238.793 63.3323C238.835 63.0765 238.917 62.8592 239.042 62.6802C239.207 62.4756 239.434 62.3094 239.724 62.1815C240.055 62.0536 240.51 61.9897 241.089 61.9897C242.909 61.9897 244.232 62.3094 245.06 62.9487C245.928 63.5624 246.466 64.3935 246.673 65.442C246.88 67.0019 247.024 68.5619 247.107 70.1218C247.231 71.6562 247.335 73.2161 247.417 74.8016C247.5 76.2337 247.562 77.6529 247.603 79.0594C247.686 80.4403 247.831 81.8213 248.038 83.2022C248.079 83.4835 248.121 83.752 248.162 84.0077C248.203 84.2635 248.265 84.5192 248.348 84.7749C248.431 85.2864 248.513 85.7978 248.596 86.3093C248.679 86.7951 248.72 87.3066 248.72 87.8436Z" fill="#E95F28"/>
<path d="M244.419 9.6846C244.419 10.1494 244.208 10.5508 243.785 10.8888C243.405 11.1846 242.94 11.4381 242.391 11.6493C241.842 11.8183 241.292 11.9451 240.743 12.0296C240.194 12.1141 239.771 12.1564 239.475 12.1564C238.504 12.1564 237.595 12.0085 236.75 11.7127C235.905 11.3747 234.997 11.1846 234.025 11.1423C232.631 11.5226 231.384 12.3676 230.286 13.6774C229.187 14.9872 228.321 16.8886 227.687 19.3815C227.053 21.8743 226.694 25.001 226.61 28.7614C226.525 32.5219 226.8 37.064 227.434 42.3877C230.095 41.8385 232.567 41.3737 234.849 40.9934C237.173 40.5709 238.968 40.3596 240.236 40.3596C241.25 40.3596 241.947 40.6343 242.327 41.1835C242.708 41.7328 242.898 42.43 242.898 43.275C242.898 44.1201 242.813 44.9017 242.644 45.62C242.475 46.3383 242.032 46.9298 241.313 47.3946L228.067 49.4227C228.279 51.1973 228.448 52.993 228.574 54.8098C228.743 56.5844 228.912 58.3379 229.081 60.0702C229.757 65.563 230.328 70.0629 230.793 73.5698C231.3 77.0767 231.701 79.8865 231.997 81.9991C232.335 84.0694 232.588 85.5694 232.757 86.4989C232.969 87.3862 233.116 87.9989 233.201 88.3369C233.285 88.6327 233.328 88.7594 233.328 88.7172C233.37 88.6749 233.391 88.7172 233.391 88.8439C233.391 89.7312 233.116 90.3439 232.567 90.6819C232.018 91.0622 231.363 91.2523 230.602 91.2523C230.011 91.2523 229.377 91.1889 228.701 91.0622C228.067 90.9777 227.434 90.8298 226.8 90.6185C226.166 90.4072 225.596 90.1115 225.089 89.7312C224.582 89.3509 224.222 88.8862 224.011 88.3369C223.673 85.4638 223.272 82.7174 222.807 80.0977C222.342 77.4781 221.941 74.7528 221.603 71.922C221.265 68.584 220.884 65.0349 220.462 61.2744C220.082 57.514 219.765 53.9226 219.511 50.5001C219.342 50.5424 219.173 50.5635 219.004 50.5635C218.835 50.5213 218.645 50.5001 218.434 50.5001C217.758 50.5001 217.187 50.3523 216.723 50.0565C216.3 49.7185 216.089 49.1269 216.089 48.2819C216.089 47.3101 216.321 46.4228 216.786 45.62C217.293 44.8172 218.032 44.2891 219.004 44.0356C218.878 41.7117 218.73 39.1343 218.561 36.3034C218.392 33.4725 218.328 30.5994 218.37 27.684C218.413 24.7264 218.645 21.8743 219.068 19.1279C219.532 16.3393 220.335 13.8887 221.476 11.7761C222.617 9.62122 224.18 7.88889 226.166 6.57907C228.152 5.26926 230.708 4.61435 233.835 4.61435C234.469 4.61435 235.356 4.71998 236.497 4.93124C237.68 5.1425 238.863 5.48052 240.046 5.94529C241.229 6.36781 242.243 6.89596 243.088 7.52974C243.975 8.16353 244.419 8.88181 244.419 9.6846Z" fill="#E95F28"/>
<path fill-rule="evenodd" clip-rule="evenodd" d="M6.01765 39.9513C2.2149 45.5141 0 52.1871 0 59.3618C0 78.785 16.2326 94.5306 36.2566 94.5306C56.2805 94.5306 72.5131 78.785 72.5131 59.3618C72.5131 52.7169 70.6133 46.5025 67.3117 41.2017C65.8966 18.6564 52.6954 0.988724 36.6192 0.988724C20.8414 0.988724 7.83291 18.0065 6.01765 39.9513ZM55.8367 29.7573C52.0694 20.0787 44.8751 13.5371 36.6193 13.5371C28.5282 13.5371 21.4566 19.8203 17.6313 29.1819C23.075 26.0141 29.4465 24.1929 36.2566 24.1929C43.4689 24.1929 50.1895 26.2357 55.8367 29.7573Z" fill="#4B3832"/>
<path d="M60.1859 64.1734L44.9648 71.6245V68.0841L56.1973 62.9239L56.0826 63.1206V62.6231L56.1973 62.8313L44.9648 57.6596V54.1308L60.1859 61.5818V64.1734Z" fill="#E95F28"/>
<path d="M41.5722 47.3971L34.0075 75.7665H30.9473L38.512 47.3971H41.5722Z" fill="#E95F28"/>
<path d="M12.3274 64.1734V61.5818L27.5485 54.1308V57.6596L16.316 62.8313L16.4192 62.6231V63.1206L16.316 62.9239L27.5485 68.0841V71.6245L12.3274 64.1734Z" fill="#E95F28"/>
</svg>
