<svg width="244" height="236" viewBox="0 0 244 236" fill="none" xmlns="http://www.w3.org/2000/svg">
<g clip-path="url(#clip0_37_169)">
<path d="M35.7319 115.634C-11.9116 143.141 -11.9104 187.739 35.7343 215.246C83.3794 242.753 160.626 242.753 208.269 215.246C255.912 187.739 255.911 143.141 208.266 115.634C160.622 88.1274 83.3753 88.1274 35.7319 115.634Z" fill="#E95F28"/>
<path d="M143.228 131.562L152.312 136.806L77.788 179.725L65.0789 172.387C59.8626 172.388 55.6953 172.388 50.4792 172.388L25.075 187.059C25.0752 192.677 25.0752 194.082 25.0756 199.701L66.7036 223.735C71.9193 223.734 76.0872 223.734 81.3029 223.734L106.707 209.063C106.707 203.445 106.707 202.039 106.707 196.421L97.645 191.189L172.169 148.271L184.863 155.6C190.088 155.595 194.26 155.591 199.485 155.586L222.286 142.366C222.281 136.753 222.28 135.343 222.275 129.73L180.639 105.692C175.414 105.696 171.242 105.7 166.017 105.705L143.216 118.926C143.221 124.539 143.222 125.949 143.228 131.562Z" fill="black" fill-opacity="0.2"/>
<path d="M210.531 176.791C215.079 179.417 215.079 183.674 210.531 186.299C205.984 188.925 198.61 188.925 194.063 186.299C189.515 183.674 189.515 179.417 194.063 176.791C198.611 174.166 205.984 174.166 210.531 176.791Z" fill="#DADBD8"/>
<path d="M163.667 142.826L162.24 139.51L185.048 137.473L194.697 140.054L163.667 142.826Z" fill="#273E47"/>
<path d="M185.048 107.063V137.473L194.697 140.054L194.695 102.432L185.048 107.063Z" fill="#33535F"/>
<path d="M162.24 78.6905L168.725 70.1255L194.695 102.432L185.048 107.063L162.24 78.6905Z" fill="#273E47"/>
<path d="M139.433 80.7276L137.696 72.8968L168.725 70.1255L162.24 78.6905L139.433 80.7276Z" fill="#17282F"/>
<path d="M137.696 72.8968V111.042L163.667 142.826L162.24 139.51L139.433 111.138V80.7276L137.696 72.8968Z" fill="#040606"/>
<path d="M139.433 111.138V80.7276L162.24 78.6905L185.048 107.063V137.473L162.24 139.51L139.433 111.138Z" fill="#33535F"/>
<path d="M194.697 140.054L212.699 129.66L212.697 92.0381L194.695 102.432L194.697 140.054Z" fill="#33535F"/>
<path d="M168.725 70.1255L194.694 102.432L212.697 92.0382L186.727 59.7318L168.725 70.1255Z" fill="#273E47"/>
<path d="M137.696 72.8968L155.698 62.5032L186.727 59.7318L168.725 70.1255L137.696 72.8968Z" fill="#17282F"/>
<path d="M194.697 140.054C194.561 133.784 194.327 127.514 194.272 121.243C194.191 115.073 194.074 108.903 194.067 102.733L194.695 102.432L194.697 140.054Z" fill="#263F48"/>
<path d="M194.067 102.733C194.067 102.708 194.067 102.683 194.067 102.658L181.167 86.7143L170.355 73.1312L170.893 72.8228L194.694 102.432L194.067 102.733Z" fill="#1D2F36"/>
<path d="M137.696 72.8968L142.813 72.4399L142.539 72.5967C140.926 72.6997 139.311 72.8001 137.696 72.8968ZM150.119 72.0927L149.907 71.8278L149.832 71.8128L154.253 71.418C153.997 71.5649 153.742 71.7114 153.489 71.8573C152.366 71.937 151.242 72.0156 150.119 72.0927Z" fill="#111D23"/>
<path d="M194.697 140.054L194.695 102.432L195.247 102.113L195.325 102.211L195.325 102.432C195.322 108.703 195.202 114.973 195.119 121.244C195.064 127.513 194.832 133.783 194.697 140.054Z" fill="#263F48"/>
<path d="M194.694 102.432L170.893 72.8228L171.431 72.5134L182.252 85.843L195.185 102.037L195.247 102.113L194.694 102.432Z" fill="#1D2F36"/>
<path d="M137.696 72.8968C139.503 72.6826 141.31 72.472 143.117 72.265L142.813 72.4399L137.696 72.8968ZM149.832 71.8128L148.854 71.6198C150.929 71.3901 153.005 71.165 155.08 70.943C154.805 71.1008 154.529 71.2597 154.253 71.418L149.832 71.8128Z" fill="#111D23"/>
<path d="M186.727 59.7318L194.284 61.2101L215.906 88.1077L212.697 92.0381L186.727 59.7318Z" fill="#273E47"/>
<path d="M215.907 119.43L212.699 129.66L212.697 92.0382L215.906 88.1078L215.907 119.43Z" fill="#33535F"/>
<path d="M212.699 129.66C212.457 123.39 212.261 117.12 212.172 110.849C212.034 104.712 212.061 98.5759 212.002 92.4392L212.697 92.0382L212.699 129.66Z" fill="#263F48"/>
<path d="M212.003 92.4391C212.003 92.3879 212.002 92.3377 212.002 92.2865C207.726 86.9632 203.488 81.6098 199.271 76.2394C195.025 70.7903 190.838 65.2926 186.729 59.7333L212.697 92.0381L212.003 92.4391Z" fill="#1D2F36"/>
<path d="M186.727 59.7318C186.728 59.7318 186.727 59.7305 186.728 59.7318Z" fill="#C3C5C2"/>
<path d="M212.697 92.0381L186.729 59.7334C186.728 59.7328 186.728 59.7323 186.727 59.7318C191.274 64.9403 195.744 70.2119 200.153 75.5295C204.512 80.8265 208.849 86.141 213.149 91.485L212.697 92.0381Z" fill="#1D2F36"/>
<path d="M212.699 129.66L212.697 92.0382L213.149 91.485C213.18 91.5233 213.21 91.5621 213.241 91.6004L213.398 91.795L213.396 92.0382C213.333 98.3084 213.364 104.579 213.224 110.849C213.136 117.119 212.94 123.39 212.699 129.66Z" fill="#263F48"/>
<path d="M162.24 139.51L183.76 136.601L183.458 107.652L161.637 80.1885L154.326 80.3659L153.951 79.4309L162.24 78.6905L185.048 107.063V137.473L162.24 139.51Z" fill="#46646E"/>
<path d="M201.509 126.812C201.392 126.959 201.262 127.061 201.117 127.122C200.975 127.182 200.858 127.188 200.768 127.137L197.54 125.361C197.463 125.316 197.374 125.256 197.269 125.187C197.164 125.119 197.111 124.999 197.111 124.83V122.764C197.111 122.641 197.164 122.503 197.269 122.352C197.374 122.202 197.497 122.084 197.639 122.003L210.268 114.711C210.41 114.629 210.534 114.603 210.639 114.633C210.744 114.663 210.793 114.743 210.793 114.866V117.083C210.793 117.209 210.744 117.343 210.639 117.493C210.534 117.645 210.41 117.76 210.268 117.842L201.725 122.775L203.486 123.773C203.575 123.824 203.609 123.918 203.591 124.052C203.572 124.186 203.504 124.326 203.387 124.472L201.509 126.812Z" fill="#17282F"/>
<path d="M205.595 108.658C204.486 109.254 203.393 109.885 202.309 110.556C201.988 110.763 201.685 110.98 201.41 111.201C201.139 111.421 200.9 111.656 200.697 111.91C200.496 112.161 200.335 112.435 200.218 112.728C200.101 113.021 200.045 113.335 200.045 113.674C200.045 114.011 200.101 114.262 200.218 114.42C200.335 114.578 200.496 114.666 200.697 114.686C200.9 114.704 201.139 114.667 201.41 114.579C201.685 114.487 201.988 114.352 202.309 114.179C203.393 113.608 204.486 112.979 205.595 112.281C205.922 112.08 206.222 111.87 206.494 111.652C206.769 111.432 207.003 111.195 207.207 110.936C207.411 110.676 207.569 110.402 207.686 110.108C207.803 109.816 207.862 109.499 207.862 109.161C207.862 108.823 207.803 108.574 207.686 108.416C207.569 108.258 207.411 108.165 207.207 108.143C207.003 108.119 206.769 108.154 206.494 108.248C206.222 108.343 205.922 108.479 205.595 108.658ZM196.916 115.479C196.916 114.633 197.059 113.825 197.346 113.048C197.633 112.272 198.016 111.547 198.498 110.869C198.982 110.189 199.545 109.565 200.19 108.993C200.836 108.424 201.509 107.92 202.213 107.479C202.772 107.135 203.362 106.781 203.97 106.431C204.585 106.076 205.159 105.756 205.694 105.469C206.398 105.096 207.071 104.823 207.717 104.648C208.359 104.476 208.924 104.447 209.406 104.57C209.888 104.692 210.274 104.973 210.558 105.42C210.846 105.864 210.99 106.508 210.99 107.354C210.99 108.2 210.846 109.011 210.558 109.788C210.274 110.561 209.888 111.289 209.406 111.968C208.924 112.647 208.359 113.272 207.717 113.839C207.071 114.41 206.398 114.914 205.694 115.355C205.159 115.686 204.585 116.03 203.97 116.385C203.362 116.735 202.772 117.066 202.213 117.365C201.509 117.738 200.836 118.011 200.19 118.185C199.545 118.36 198.982 118.387 198.498 118.266C198.016 118.144 197.633 117.859 197.346 117.416C197.059 116.972 196.916 116.325 196.916 115.479Z" fill="#17282F"/>
<path d="M78.4147 173.553C76.5974 174.603 74.0874 174.451 71.3145 172.85C65.7686 169.648 61.2732 161.861 61.2732 155.458C61.2727 152.256 62.3965 150.007 64.2143 148.957C65.3174 148.32 148.365 100.373 149.468 99.736C151.285 98.6866 153.796 98.8387 156.569 100.439C162.114 103.642 166.61 111.428 166.61 117.832C166.61 121.033 165.485 123.283 163.669 124.332C162.565 124.969 79.5178 172.916 78.4147 173.553Z" fill="#EDEDEB"/>
<path d="M61.2732 155.458C61.2732 152.256 62.3971 150.007 64.2143 148.957C66.0315 147.908 68.5416 148.06 71.3145 149.661C76.8603 152.863 81.3557 160.65 81.3557 167.053C81.3557 170.255 80.2319 172.504 78.4147 173.554C76.5974 174.603 74.0874 174.451 71.3145 172.85C65.7686 169.648 61.2732 161.861 61.2732 155.458Z" fill="#FAFAF9"/>
<path d="M101.088 160.59L104.474 158.635C106.272 157.597 107.421 155.335 107.407 152.146C107.421 145.744 102.922 137.951 97.3702 134.762C94.6164 133.156 92.0831 133.021 90.2845 134.059L86.8989 136.014C88.6975 134.975 91.2309 135.111 93.9846 136.717C99.5367 139.906 104.036 147.699 104.021 154.1C104.035 157.289 102.887 159.552 101.088 160.59Z" fill="#DADBD8"/>
<path d="M147.484 133.637L150.869 131.683C152.668 130.644 153.817 128.383 153.802 125.194C153.817 118.792 149.318 110.999 143.766 107.81C141.012 106.204 138.479 106.068 136.68 107.106L133.295 109.061C135.094 108.023 137.627 108.159 140.381 109.764C145.933 112.954 150.432 120.746 150.417 127.148C150.431 130.337 149.283 132.599 147.484 133.637Z" fill="#DADBD8"/>
<path d="M115.642 152.021L136.029 140.251C137.827 139.212 138.976 136.951 138.962 133.762C138.977 127.36 134.477 119.567 128.925 116.378C126.172 114.773 123.638 114.636 121.84 115.674L101.453 127.445C103.251 126.407 105.784 126.543 108.539 128.149C114.09 131.338 118.589 139.131 118.575 145.532C118.589 148.721 117.44 150.983 115.642 152.021Z" fill="#DADBD8"/>
<path d="M48.2253 209.479L46.7981 206.164L69.6054 204.127L79.254 206.708L48.2253 209.479Z" fill="#273E47"/>
<path d="M69.6055 173.717V204.127L79.254 206.708L79.2525 169.085L69.6055 173.717Z" fill="#33535F"/>
<path d="M46.7981 145.344L53.2825 136.779L79.2524 169.085L69.6054 173.717L46.7981 145.344Z" fill="#273E47"/>
<path d="M23.9906 147.382L22.2534 139.551L53.2825 136.779L46.7981 145.344L23.9906 147.382Z" fill="#17282F"/>
<path d="M22.2534 139.551V177.696L48.2253 209.479L46.7981 206.164L23.9906 177.791V147.382L22.2534 139.551Z" fill="#040606"/>
<path d="M23.9907 177.791V147.382L46.7982 145.344L69.6055 173.717V204.127L46.7982 206.164L23.9907 177.791Z" fill="#33535F"/>
<path d="M79.254 206.708L97.2565 196.313L97.2549 158.692L79.2524 169.085L79.254 206.708Z" fill="#33535F"/>
<path d="M53.2825 136.779L79.2524 169.085L97.2548 158.692L71.285 126.385L53.2825 136.779Z" fill="#273E47"/>
<path d="M22.2534 139.551L40.2562 129.157L71.285 126.385L53.2825 136.779L22.2534 139.551Z" fill="#17282F"/>
<path d="M79.254 206.708C79.1184 200.438 78.885 194.167 78.8302 187.897C78.7484 181.727 78.6315 175.557 78.6248 169.387L79.2524 169.085L79.254 206.708Z" fill="#263F48"/>
<path d="M78.6246 169.387C78.6246 169.362 78.6246 169.336 78.6246 169.311L65.7251 153.368L53.0123 137.396C52.9424 137.402 52.8726 137.407 52.8027 137.412L53.2824 136.779L79.2523 169.085L78.6246 169.387Z" fill="#1D2F36"/>
<path d="M22.2534 139.551L53.2825 136.779L52.8029 137.412C42.6263 138.199 32.4454 138.939 22.2534 139.551Z" fill="#111D23"/>
<path d="M79.254 206.708L79.2524 169.085L79.804 168.767L79.8827 168.865V169.086C79.8796 175.356 79.759 181.626 79.6762 187.897C79.6219 194.167 79.389 200.438 79.254 206.708Z" fill="#263F48"/>
<path d="M79.2524 169.085L53.2825 136.779L53.8046 136.477L66.8092 152.496L79.7434 168.69L79.8039 168.767L79.2524 169.085Z" fill="#1D2F36"/>
<path d="M22.2534 139.551C32.5695 138.326 42.8969 137.231 53.2287 136.185L53.5423 136.154L53.7467 136.406L53.8046 136.477L53.2825 136.779L22.2534 139.551Z" fill="#111D23"/>
<path d="M71.2849 126.385L78.8415 127.864L100.463 154.761L97.2548 158.692L71.2849 126.385Z" fill="#273E47"/>
<path d="M100.465 186.084L97.2564 196.313L97.2549 158.692L100.463 154.761L100.465 186.084Z" fill="#33535F"/>
<path d="M97.2565 196.313C97.0154 190.043 96.8187 183.773 96.7297 177.503C96.5921 171.366 96.6185 165.229 96.5605 159.093L97.2549 158.692L97.2565 196.313Z" fill="#263F48"/>
<path d="M96.5604 159.093C96.5599 159.041 96.5594 158.991 96.5589 158.94C92.2838 153.617 88.045 148.263 83.828 142.893C80.8372 139.054 77.8749 135.191 74.9488 131.299L75.34 131.562L75.4611 131.58L97.2548 158.692L96.5604 159.093ZM72.0983 127.484C71.8267 127.117 71.5555 126.752 71.2849 126.385L72.1035 127.404L72.0983 127.484Z" fill="#1D2F36"/>
<path d="M97.2548 158.692L75.4611 131.58L75.8264 131.638C78.8177 135.129 81.7779 138.646 84.7112 142.183C89.0695 147.48 93.4067 152.794 97.706 158.138L97.2548 158.692ZM72.1035 127.404L71.2849 126.385C71.5597 126.7 71.8344 127.015 72.1087 127.331L72.1035 127.404Z" fill="#1D2F36"/>
<path d="M97.2564 196.313L97.2549 158.692L97.7061 158.138C97.7371 158.177 97.7682 158.216 97.7992 158.254L97.9555 158.448L97.9534 158.692C97.8903 164.962 97.9219 171.233 97.7816 177.503C97.6932 183.773 97.4976 190.043 97.2564 196.313Z" fill="#263F48"/>
<path d="M46.7982 206.164L68.3181 203.254L68.016 174.305L46.1948 146.842L23.9907 147.382L46.7982 145.344L69.6055 173.717V204.127L46.7982 206.164Z" fill="#46646E"/>
<path d="M86.0613 193.469C85.9438 193.615 85.8139 193.717 85.669 193.778C85.5267 193.838 85.4098 193.844 85.3198 193.793L82.0926 192.018C82.0155 191.973 81.9259 191.912 81.8209 191.844C81.7159 191.775 81.6631 191.655 81.6631 191.486V189.42C81.6631 189.297 81.7159 189.159 81.8209 189.008C81.9259 188.858 82.0491 188.74 82.1914 188.659L94.8203 181.367C94.9621 181.285 95.0858 181.26 95.1908 181.29C95.2959 181.32 95.345 181.399 95.345 181.522V183.74C95.345 183.865 95.2959 183.999 95.1908 184.15C95.0858 184.302 94.9621 184.417 94.8203 184.499L86.2775 189.431L88.0378 190.429C88.1274 190.481 88.1615 190.574 88.1429 190.708C88.1243 190.842 88.0565 190.982 87.939 191.129L86.0613 193.469Z" fill="#17282F"/>
<path d="M90.1474 175.314C89.0385 175.91 87.9452 176.541 86.8612 177.212C86.5399 177.42 86.2372 177.636 85.9624 177.858C85.6907 178.077 85.4527 178.312 85.2489 178.566C85.0481 178.818 84.8877 179.091 84.7702 179.384C84.6528 179.677 84.5974 179.992 84.5974 180.33C84.5974 180.668 84.6528 180.919 84.7702 181.077C84.8877 181.235 85.0481 181.323 85.2489 181.342C85.4527 181.36 85.6907 181.324 85.9624 181.235C86.2372 181.143 86.5399 181.008 86.8612 180.835C87.9452 180.264 89.0385 179.635 90.1474 178.937C90.4744 178.736 90.774 178.526 91.0462 178.308C91.3209 178.088 91.5558 177.851 91.7592 177.592C91.9631 177.333 92.1209 177.058 92.2383 176.765C92.3553 176.472 92.4143 176.155 92.4143 175.818C92.4143 175.479 92.3553 175.23 92.2383 175.072C92.1209 174.915 91.9631 174.822 91.7592 174.799C91.5558 174.775 91.3209 174.81 91.0462 174.905C90.774 175 90.4744 175.135 90.1474 175.314ZM81.4685 182.135C81.4685 181.289 81.6108 180.481 81.898 179.705C82.1852 178.928 82.5681 178.204 83.0498 177.526C83.5346 176.845 84.0971 176.221 84.7423 175.65C85.3881 175.081 86.0612 174.576 86.7655 174.135C87.3243 173.791 87.9142 173.437 88.5227 173.087C89.1374 172.733 89.7117 172.412 90.2462 172.125C90.9504 171.753 91.6236 171.48 92.2689 171.305C92.9115 171.132 93.4765 171.104 93.9583 171.227C94.44 171.349 94.826 171.63 95.1106 172.077C95.3978 172.52 95.5426 173.164 95.5426 174.01C95.5426 174.856 95.3978 175.668 95.1106 176.444C94.826 177.217 94.44 177.945 93.9583 178.624C93.4765 179.304 92.9115 179.929 92.2689 180.496C91.6236 181.066 90.9504 181.57 90.2462 182.012C89.7117 182.343 89.1374 182.686 88.5227 183.041C87.9142 183.391 87.3243 183.722 86.7655 184.021C86.0612 184.395 85.3881 184.667 84.7423 184.841C84.0971 185.016 83.5346 185.043 83.0498 184.922C82.5681 184.801 82.1852 184.516 81.898 184.072C81.6108 183.628 81.4685 182.982 81.4685 182.135Z" fill="#17282F"/>
<path d="M208.641 152.734C208.262 152.515 207.857 152.32 207.432 152.15C206.645 151.835 206.115 151.092 206.116 150.245L206.119 147.921L198.534 147.91L198.531 150.234C198.529 151.081 197.997 151.822 197.209 152.135C196.784 152.304 196.378 152.497 195.998 152.716C194.251 153.721 193.377 155.041 193.375 156.362L193.341 179.691C193.338 181.012 194.209 182.334 195.953 183.344C199.441 185.365 205.102 185.373 208.596 183.363C210.343 182.357 211.218 181.038 211.22 179.717L211.254 156.387C211.256 155.066 210.385 153.744 208.641 152.734Z" fill="#4B3832"/>
<path d="M202.295 184.865C200 184.865 197.703 184.358 195.953 183.344C194.213 182.336 193.342 181.017 193.341 179.698C193.341 179.696 193.341 179.693 193.341 179.691L193.375 156.362C193.375 155.756 193.56 155.151 193.927 154.576C193.56 155.151 193.377 155.756 193.376 156.361L193.341 179.689C193.34 181.012 194.209 182.333 195.953 183.343C197.701 184.356 199.993 184.861 202.285 184.861C203.284 184.861 204.282 184.764 205.236 184.574C204.717 184.608 204.225 184.625 203.761 184.625C202.644 184.625 201.682 184.529 200.856 184.359C201.333 184.407 201.817 184.432 202.3 184.432C204.385 184.432 206.47 183.978 208.062 183.071C208.756 182.676 209.299 182.228 209.692 181.748C209.164 182.621 208.307 183.464 206.956 184.109C205.531 184.613 203.914 184.865 202.295 184.865ZM210.44 179.431C210.393 179.053 210.265 178.676 210.057 178.312L210.076 161.51C210.016 159.713 206.47 158.894 202.776 158.894C200.349 158.894 197.86 159.247 196.252 159.908L196.257 156.904C196.258 156.118 196.377 155.469 196.925 154.923C197.171 155.152 197.465 155.367 197.808 155.564C199.057 156.287 200.698 156.649 202.336 156.649C203.964 156.649 205.59 156.292 206.833 155.577C207.898 154.965 208.509 154.189 208.666 153.388C209.484 153.932 210.3 154.612 210.416 155.245C210.623 156.378 210.492 158.343 210.489 160.764C210.485 163.185 210.464 177.351 210.462 178.94C210.462 179.097 210.455 179.262 210.44 179.431Z" fill="#4B3832"/>
<path d="M210.057 178.312C209.671 177.636 209.009 177 208.071 176.462C206.471 175.544 204.37 175.085 202.271 175.085C200.186 175.085 198.102 175.538 196.51 176.445C196.413 176.501 196.319 176.557 196.228 176.614L196.252 159.908C197.86 159.247 200.349 158.894 202.776 158.894C206.47 158.894 210.016 159.713 210.076 161.51L210.057 178.312Z" fill="#4B3832"/>
<path d="M202.3 184.432C201.817 184.432 201.333 184.407 200.856 184.359C199.371 184.054 198.327 183.51 197.61 182.858C198.955 183.404 200.569 183.699 202.274 183.701C202.282 183.701 202.289 183.701 202.296 183.701C204.475 183.702 206.505 183.223 208.015 182.354C209.31 181.609 210.054 180.646 210.055 179.715L210.057 178.312C210.265 178.676 210.393 179.053 210.44 179.431C210.377 180.147 210.168 180.96 209.692 181.748C209.299 182.228 208.756 182.676 208.062 183.071C206.47 183.978 204.385 184.432 202.3 184.432Z" fill="#4B3832"/>
<path d="M202.296 183.701C202.289 183.701 202.282 183.701 202.274 183.701C200.569 183.699 198.955 183.404 197.61 182.858C196.572 181.915 196.222 180.747 196.223 179.749L196.228 176.614C196.319 176.557 196.413 176.501 196.51 176.445C198.102 175.538 200.186 175.085 202.271 175.085C204.37 175.085 206.471 175.544 208.071 176.462C209.009 177 209.671 177.636 210.057 178.312L210.055 179.715C210.054 180.646 209.31 181.609 208.015 182.354C206.505 183.223 204.475 183.702 202.296 183.701Z" fill="#4B3832"/>
<path d="M193.927 154.576C194.355 153.907 195.03 153.279 195.956 152.74L195.999 152.715C196.033 152.695 196.067 152.675 196.102 152.656L196.103 152.657C196.068 152.676 196.033 152.696 195.999 152.716C195.052 153.26 194.362 153.897 193.927 154.576Z" fill="#B4B6B4"/>
<path d="M202.285 184.861C199.993 184.861 197.701 184.356 195.953 183.343C194.209 182.333 193.34 181.012 193.341 179.689L193.376 156.361C193.376 155.756 193.56 155.151 193.927 154.576C194.362 153.897 195.052 153.26 195.998 152.716C196.033 152.696 196.068 152.676 196.102 152.657C196.177 152.849 196.279 153.039 196.409 153.223C196.718 153.669 197.188 154.085 197.807 154.446C199.058 155.168 200.699 155.53 202.337 155.53C203.965 155.53 205.592 155.173 206.834 154.458C207.499 154.075 207.987 153.628 208.299 153.153C208.42 153.228 208.543 153.306 208.666 153.388C208.509 154.189 207.898 154.965 206.833 155.577C205.59 156.292 203.964 156.649 202.336 156.649C200.698 156.649 199.057 156.287 197.808 155.564C197.465 155.367 197.171 155.152 196.925 154.923C196.377 155.469 196.258 156.118 196.257 156.904L196.252 159.908C195.326 160.289 194.692 160.772 194.531 161.348L194.507 178.31C193.593 179.924 194.257 181.768 196.5 183.054C197.732 183.761 199.26 184.196 200.856 184.359C201.682 184.529 202.644 184.625 203.761 184.625C204.225 184.625 204.717 184.608 205.236 184.574C204.282 184.764 203.284 184.861 202.285 184.861Z" fill="#4B3832"/>
<path d="M194.507 178.31L194.531 161.348C194.692 160.772 195.326 160.289 196.252 159.908L196.228 176.614C195.427 177.117 194.853 177.697 194.507 178.31Z" fill="#4B3832"/>
<path d="M200.856 184.359C199.26 184.196 197.732 183.761 196.5 183.054C194.257 181.768 193.593 179.924 194.507 178.31L194.505 179.692C194.504 180.623 195.244 181.588 196.537 182.337C196.87 182.53 197.229 182.704 197.61 182.858C198.327 183.51 199.372 184.054 200.856 184.359Z" fill="#4B3832"/>
<path d="M197.61 182.858C197.229 182.704 196.87 182.53 196.537 182.337C195.244 181.588 194.504 180.623 194.505 179.692L194.507 178.31C194.853 177.697 195.427 177.117 196.228 176.614L196.223 179.749C196.222 180.747 196.572 181.916 197.61 182.858Z" fill="#4B3832"/>
<path d="M206.885 184.143C206.908 184.131 206.933 184.12 206.956 184.109C207.539 183.902 208.09 183.654 208.596 183.363C210.343 182.357 211.217 181.038 211.22 179.717C211.217 181.107 210.345 182.373 208.597 183.379C208.074 183.68 207.491 183.932 206.885 184.143Z" fill="#E8E9E6"/>
<path d="M211.253 156.333C211.232 155.031 210.361 153.73 208.641 152.734C210.361 153.73 211.232 155.031 211.253 156.333Z" fill="#FCFDFC"/>
<path d="M206.956 184.109C208.307 183.464 209.164 182.621 209.692 181.748C210.289 181.019 210.539 180.219 210.44 179.431C210.455 179.262 210.462 179.097 210.462 178.94C210.464 177.351 210.485 163.185 210.489 160.764C210.492 158.343 210.623 156.378 210.416 155.245C210.3 154.612 209.484 153.932 208.666 153.388C208.707 153.183 208.717 152.975 208.697 152.768L208.547 152.681C208.578 152.698 208.61 152.716 208.641 152.734C210.361 153.73 211.232 155.031 211.253 156.333C211.254 156.349 211.254 156.364 211.254 156.38C211.254 156.382 211.254 156.385 211.254 156.387L211.22 179.717C211.218 181.038 210.343 182.357 208.596 183.363C208.09 183.654 207.539 183.902 206.956 184.109Z" fill="#4B3832"/>
<path d="M209.692 181.748C210.168 180.96 210.377 180.147 210.44 179.431C210.539 180.219 210.289 181.019 209.692 181.748Z" fill="#4B3832"/>
<path d="M208.666 153.388C208.543 153.306 208.42 153.228 208.299 153.152C208.4 152.998 208.483 152.84 208.547 152.681L208.697 152.768C208.717 152.975 208.707 153.182 208.666 153.388Z" fill="#B67EBB"/>
<path d="M208.71 151.185L208.709 151.847C208.714 152.789 208.087 153.736 206.834 154.458C204.341 155.892 200.302 155.887 197.807 154.446C197.188 154.085 196.718 153.669 196.409 153.223C196.099 152.783 195.945 152.311 195.946 151.84L195.947 151.154C195.947 151.011 195.96 150.869 195.997 150.726C196.153 149.927 196.762 149.154 197.816 148.548L197.909 148.499C200.414 147.115 204.385 147.139 206.843 148.561C207.895 149.17 208.507 149.945 208.661 150.739C208.698 150.887 208.71 151.036 208.71 151.185Z" fill="#273E47"/>
<path d="M202.843 154.844L202.847 152.496C202.848 151.567 203.082 152.824 201.453 152.822C200.04 152.82 198.787 149.559 197.909 148.499L197.816 148.548C196.762 149.154 196.153 149.927 195.997 150.726C195.96 150.869 195.947 151.011 195.947 151.154L195.946 151.84C195.945 152.311 196.099 152.783 196.409 153.223C196.718 153.669 197.188 154.085 197.807 154.446C200.302 155.887 204.341 155.892 206.834 154.458C205.074 155.15 202.842 155.73 202.843 154.844Z" fill="#17282F"/>
<path d="M197.811 153.76C195.321 152.317 195.324 149.985 197.819 148.549C200.313 147.114 204.354 147.12 206.844 148.563C209.334 150.006 209.331 152.338 206.836 153.773C204.342 155.208 200.301 155.203 197.811 153.76Z" fill="#4B3832"/>
<path d="M208.713 148.973L208.711 150.293C208.711 150.441 208.699 150.59 208.661 150.739C208.505 151.531 207.891 152.305 206.837 152.91C205.72 153.554 204.295 153.904 202.845 153.964C201.042 154.048 199.19 153.692 197.809 152.891C197.19 152.531 196.726 152.121 196.411 151.675C196.195 151.371 196.059 151.049 195.997 150.726C195.96 150.583 195.948 150.435 195.948 150.292L195.95 148.942C195.952 147.994 196.573 147.053 197.819 146.336C197.931 146.274 198.042 146.213 198.16 146.157C200.671 144.903 204.469 144.97 206.846 146.349C208.097 147.076 208.721 148.025 208.713 148.973Z" fill="#273E47"/>
<path d="M197.815 151.518C195.324 150.075 195.328 147.742 197.822 146.307C200.316 144.872 204.357 144.878 206.847 146.32C209.337 147.763 209.334 150.096 206.84 151.531C204.345 152.966 200.304 152.961 197.815 151.518Z" fill="#33535F"/>
<path d="M196.411 151.675C196.726 152.121 197.191 152.531 197.809 152.891C199.19 153.692 201.042 154.048 202.845 153.964C202.863 153.501 203.122 153.146 201.453 152.822C200.066 152.553 198.015 151.973 197.06 150.454C196.182 149.059 196.69 147.22 198.16 146.157C198.042 146.213 197.931 146.274 197.819 146.336C196.573 147.053 195.952 147.994 195.95 148.942L195.948 150.292C195.948 150.435 195.96 150.583 195.997 150.726C196.059 151.049 196.195 151.371 196.411 151.675Z" fill="#17282F"/>
<path d="M200.398 145.58L200.382 148.485L200.397 148.621C200.443 148.862 200.628 149.099 200.948 149.286C201.287 149.484 201.72 149.594 202.161 149.615C202.71 149.644 203.275 149.54 203.697 149.299C203.886 149.19 204.028 149.066 204.125 148.931C204.192 148.839 204.234 148.741 204.253 148.643L204.269 148.511L204.285 145.597C204.286 145.309 204.099 145.021 203.721 144.8L203.618 144.745C202.855 144.358 201.699 144.37 200.972 144.786C200.59 145.004 200.398 145.292 200.398 145.58Z" fill="#4B3832"/>
<path d="M202.342 149.62C202.282 149.62 202.221 149.618 202.161 149.615C201.72 149.594 201.287 149.484 200.948 149.286C200.628 149.099 200.443 148.862 200.397 148.621L200.382 148.485L200.39 147.102C200.456 147.153 200.53 147.202 200.61 147.249C201.031 147.496 201.572 147.633 202.122 147.659C202.197 147.663 202.272 147.665 202.347 147.665C202.959 147.665 203.568 147.533 204.037 147.265C204.125 147.214 204.205 147.162 204.276 147.106L204.269 148.511L204.253 148.643C204.234 148.741 204.192 148.839 204.125 148.931C204.028 149.066 203.886 149.19 203.697 149.299C203.321 149.513 202.832 149.62 202.342 149.62Z" fill="#4B3832"/>
<path d="M200.398 145.571C200.395 146.188 201.262 146.693 202.335 146.699C203.409 146.704 204.282 146.209 204.285 145.592C204.288 144.975 203.421 144.47 202.347 144.464C201.274 144.458 200.401 144.954 200.398 145.571Z" fill="#4B3832"/>
<path d="M199.92 145.262L199.905 146.25C199.904 146.306 199.908 146.363 199.922 146.42C199.98 146.721 200.211 147.016 200.61 147.249C201.032 147.496 201.572 147.633 202.122 147.659C202.807 147.696 203.511 147.566 204.037 147.265C204.273 147.13 204.451 146.975 204.572 146.807C204.655 146.692 204.707 146.57 204.731 146.448C204.746 146.394 204.75 146.337 204.751 146.283L204.766 145.283C204.768 144.924 204.535 144.565 204.064 144.289L203.934 144.221C202.984 143.738 201.542 143.753 200.636 144.271C200.159 144.544 199.92 144.903 199.92 145.262Z" fill="#4B3832"/>
<path d="M202.347 147.665C202.272 147.665 202.197 147.663 202.122 147.659C201.572 147.633 201.032 147.496 200.61 147.249C200.211 147.016 199.98 146.721 199.922 146.42C199.909 146.364 199.905 146.31 199.905 146.255C199.905 146.254 199.905 146.252 199.905 146.25L199.92 145.262C199.92 145.252 199.92 145.241 199.921 145.231C199.92 145.237 199.92 145.244 199.92 145.25C199.916 146.02 200.997 146.649 202.336 146.656C202.343 146.656 202.351 146.657 202.359 146.657C203.686 146.657 204.762 146.041 204.766 145.276V145.276C204.766 145.277 204.766 145.278 204.766 145.279C204.766 145.281 204.766 145.282 204.766 145.283L204.751 146.283C204.75 146.337 204.746 146.394 204.731 146.448C204.707 146.57 204.655 146.692 204.572 146.807C204.451 146.975 204.273 147.13 204.037 147.265C203.568 147.533 202.959 147.665 202.347 147.665ZM202.054 143.879C202.056 143.879 202.057 143.879 202.058 143.879C202.057 143.879 202.056 143.879 202.054 143.879ZM202.061 143.879C202.149 143.873 202.239 143.87 202.328 143.87C202.405 143.87 202.482 143.872 202.559 143.877C202.491 143.873 202.421 143.871 202.35 143.87C202.343 143.87 202.335 143.87 202.328 143.87C202.237 143.87 202.148 143.873 202.061 143.879Z" fill="#9B8F77"/>
<path d="M199.92 145.25C199.916 146.02 200.997 146.649 202.336 146.656C203.674 146.663 204.762 146.046 204.766 145.276C204.77 144.507 203.689 143.878 202.35 143.87C201.012 143.863 199.924 144.481 199.92 145.25Z" fill="#9B8F77"/>
<path d="M202.348 145.758C202.346 145.758 202.343 145.758 202.341 145.758C201.866 145.755 201.482 145.532 201.483 145.259C201.484 144.987 201.866 144.769 202.337 144.769C202.34 144.769 202.343 144.769 202.346 144.769C202.821 144.771 203.205 144.995 203.203 145.268C203.202 145.54 202.82 145.758 202.348 145.758Z" fill="#273E47"/>
<path d="M161.998 149.95C161.998 149.95 159.541 165.514 159.22 170.12C159.048 172.587 159.339 173.324 160.02 175.006C160.555 176.328 160.882 177.157 161.821 178.849C162.039 179.241 154.265 183.023 153.265 182.715C150.64 181.907 149.582 178.89 148.548 176.646C147.757 174.929 148.327 174.085 148.288 172.26C148.244 170.221 145.588 152.38 145.272 150.364C148.757 146.799 157.935 148.662 161.998 149.95Z" fill="#955F4E"/>
<path d="M146.758 179.965C146.704 180.761 146.879 181.412 147.117 182.154C147.354 182.894 149.897 184.726 150.781 185.95C151.665 187.176 151.771 187.667 152.772 189.339C153.881 191.192 154.448 193.45 159.517 195.396C164.653 197.369 168.044 196.622 170.461 195.925C172.878 195.227 173.648 194.04 173.648 194.04C173.648 194.04 174.564 191.137 172.971 190.438C171.378 189.738 146.758 179.965 146.758 179.965Z" fill="#17282F"/>
<path d="M160.027 173.452C160.398 173.844 160.581 174.939 160.736 175.447C161.257 177.157 162.524 178.753 163.667 180.104C169.076 186.502 174.371 186.52 174.057 191.895C173.898 193.399 171.015 195.567 164.455 195.536C161.104 195.52 156.108 193.082 154.672 190.929C153.236 188.775 152.658 186.919 151.492 185.34C150.326 183.762 147.388 181.791 146.758 179.965C146.387 178.893 146.477 177.695 146.612 176.588C146.722 175.678 147.289 173.944 147.427 173.035C147.576 172.052 147.432 171.461 148.204 171.416L148.53 172.846C149.204 175.211 149.682 175.076 150.537 175.706C151.429 176.362 152.12 177.377 152.861 178.217C152.48 176.613 151.852 175.585 152.699 174.83C153.493 174.122 154.653 173.716 156.825 173.387C158.998 173.059 159.698 173.103 160.027 173.452Z" fill="#4B3832"/>
<path d="M164.593 195.536C165.207 195.536 165.789 195.517 166.339 195.481C165.789 195.517 165.208 195.536 164.593 195.536Z" fill="#4B3832"/>
<path d="M164.564 195.536C164.528 195.536 164.491 195.536 164.455 195.536C164.492 195.536 164.528 195.536 164.564 195.536Z" fill="#4B3832"/>
<path d="M160.569 192.27C159.483 192.27 158.219 191.927 157.55 191.763C156.324 191.462 155.267 190.634 154.371 189.778C154.138 189.556 153.913 189.326 153.694 189.09C153.596 188.983 153.494 188.84 153.384 188.71C153.697 189.315 154.041 189.947 154.463 190.608C153.177 188.59 152.6 186.84 151.492 185.34C150.326 183.762 147.388 181.791 146.757 179.965C146.562 179.4 146.495 178.8 146.495 178.196C146.494 177.655 146.548 177.111 146.612 176.588C146.722 175.678 147.289 173.944 147.427 173.035C147.576 172.052 147.432 171.461 148.204 171.416L148.53 172.846C149.204 175.211 149.682 175.076 150.537 175.706C151.429 176.362 152.12 177.377 152.861 178.217C152.619 177.199 152.277 176.413 152.277 175.781C152.277 175.418 152.39 175.106 152.699 174.83C153.493 174.122 154.653 173.716 156.825 173.387C157.824 173.236 158.512 173.164 158.996 173.164C159.563 173.164 159.85 173.264 160.027 173.452C160.398 173.844 160.581 174.939 160.736 175.447C161.256 177.157 162.524 178.753 163.667 180.104C168.923 186.321 174.072 186.514 174.07 191.451C174.07 191.577 174.066 191.706 174.06 191.839C174.175 189.619 173.314 188.32 171.89 187.094C171.693 187.164 171.483 187.219 171.253 187.242C171.219 187.245 171.183 187.247 171.145 187.247C170.656 187.247 169.872 186.973 169.416 186.744C168.926 186.498 168.379 185.951 168.075 185.605C168.075 185.605 168.072 185.605 168.066 185.605C167.949 185.605 166.711 185.623 164.543 186.34C162.778 186.923 161.172 188.252 161.172 188.252C161.172 188.252 161.824 189.034 162.035 189.362C162.536 190.14 162.728 191.131 162.219 191.726C161.871 192.133 161.255 192.27 160.569 192.27Z" fill="#4B3832"/>
<path d="M174.059 191.852C174.059 191.849 174.059 191.846 174.06 191.844C174.059 191.846 174.059 191.849 174.059 191.852Z" fill="#4B3832"/>
<path d="M166.339 195.481C170.944 195.175 173.312 193.676 173.91 192.4C173.312 193.677 170.945 195.175 166.339 195.481Z" fill="#0F191D"/>
<path d="M164.593 195.536C164.591 195.536 164.589 195.536 164.588 195.536C164.579 195.536 164.572 195.536 164.564 195.536C164.528 195.536 164.492 195.536 164.455 195.536C163.205 195.53 161.726 195.187 160.288 194.647C157.871 193.741 155.572 192.279 154.672 190.929C154.6 190.821 154.53 190.714 154.463 190.608C154.041 189.947 153.697 189.315 153.384 188.71C153.494 188.84 153.596 188.984 153.694 189.09C153.913 189.326 154.138 189.556 154.371 189.778C155.267 190.634 156.324 191.462 157.55 191.763C158.219 191.927 159.483 192.27 160.569 192.27C161.255 192.27 161.871 192.133 162.219 191.726C162.728 191.131 162.536 190.14 162.035 189.362C161.824 189.034 161.172 188.252 161.172 188.252C161.172 188.252 162.778 186.923 164.543 186.34C166.711 185.623 167.949 185.605 168.066 185.605C168.072 185.605 168.075 185.605 168.075 185.605C168.379 185.951 168.926 186.498 169.416 186.744C169.872 186.973 170.656 187.247 171.145 187.247C171.183 187.247 171.219 187.245 171.253 187.242C171.483 187.219 171.693 187.164 171.89 187.094C173.314 188.32 174.175 189.619 174.06 191.839C174.06 191.84 174.06 191.842 174.06 191.845C174.059 191.847 174.059 191.849 174.059 191.852C174.059 191.854 174.059 191.857 174.059 191.859C174.059 191.862 174.059 191.864 174.058 191.866C174.058 191.869 174.058 191.872 174.058 191.875C174.058 191.876 174.058 191.879 174.058 191.88C174.057 191.885 174.057 191.89 174.057 191.895C174.057 191.898 174.056 191.901 174.056 191.904C174.042 192.022 174.012 192.145 173.965 192.269C173.471 193.572 171.102 195.165 166.339 195.481C165.789 195.517 165.207 195.536 164.593 195.536Z" fill="#C8C8C8"/>
<path d="M163.667 180.105C165.345 182.089 167.012 183.459 168.504 184.566C169.688 186.459 169.23 186.939 168.319 186.337C167.404 185.731 164.754 181.798 162.49 178.639C162.874 179.152 163.277 179.643 163.667 180.105Z" fill="#273E47"/>
<path d="M149.172 176.105C148.293 175.568 147.665 174.664 147.31 173.616C147.359 173.403 147.402 173.202 147.428 173.035C147.576 172.052 147.432 171.462 148.204 171.416L148.53 172.846C149.204 175.211 149.682 175.076 150.537 175.706C151.429 176.362 152.12 177.377 152.861 178.217C155.142 181.078 155.605 182.415 158.005 184.807C160.406 187.2 162.601 188.07 162.456 188.561C162.311 189.052 161.417 189.57 159.19 188.038C156.963 186.506 154.138 182.766 152.97 180.777C151.802 178.788 150.408 176.862 149.172 176.105Z" fill="#273E47"/>
<path d="M161.208 188.586C161.273 188.579 161.335 188.554 161.388 188.509C163.232 186.954 165.544 186.113 168.259 186.013C168.444 186 168.589 185.851 168.583 185.665C168.576 185.48 168.42 185.335 168.235 185.342C165.366 185.449 162.916 186.342 160.955 187.996C160.814 188.116 160.796 188.327 160.915 188.469C160.99 188.558 161.101 188.598 161.208 188.586Z" fill="#E7E8E5"/>
<path d="M159.266 186.515C159.33 186.508 159.391 186.483 159.444 186.441C161.401 184.871 163.851 184.014 166.72 183.898C166.931 183.885 167.058 183.729 167.051 183.539C167.042 183.349 166.882 183.201 166.693 183.209C163.669 183.335 161.088 184.239 159.013 185.904C158.864 186.023 158.841 186.24 158.96 186.388C159.037 186.483 159.154 186.527 159.266 186.515Z" fill="#E7E8E5"/>
<path d="M156.801 184.649C156.87 184.641 156.939 184.615 156.998 184.567C159.156 182.837 161.858 181.892 165.02 181.764C165.223 181.759 165.392 181.578 165.384 181.369C165.375 181.159 165.198 180.996 164.989 181.004C161.662 181.142 158.81 182.14 156.522 183.975C156.358 184.106 156.332 184.345 156.463 184.509C156.548 184.614 156.676 184.663 156.801 184.649Z" fill="#E7E8E5"/>
<path d="M155.004 182.663C155.072 182.656 155.139 182.63 155.196 182.583C157.311 180.885 159.955 179.96 163.062 179.833C163.259 179.825 163.427 179.652 163.418 179.446C163.41 179.24 163.237 179.081 163.031 179.09C159.771 179.222 156.971 180.203 154.73 182.003C154.57 182.131 154.544 182.366 154.673 182.526C154.755 182.629 154.882 182.677 155.004 182.663Z" fill="#E7E8E5"/>
<path d="M153.583 180.311C153.651 180.304 153.718 180.277 153.775 180.231C155.892 178.534 158.533 177.609 161.642 177.482C161.844 177.473 162.007 177.301 161.998 177.095C161.99 176.889 161.817 176.729 161.611 176.738C158.347 176.872 155.552 177.851 153.309 179.65C153.149 179.779 153.123 180.013 153.251 180.174C153.335 180.277 153.461 180.324 153.583 180.311Z" fill="#E7E8E5"/>
<path d="M126.095 100.024L105.875 101.322C104.762 111.059 106.228 121.108 109.738 124.039C119.078 131.839 143.139 135.6 143.139 135.6C142.959 137.823 142.817 140.519 143.513 145.338C144.147 149.722 145.543 157.259 146.748 162.572C150.136 165.149 159.048 163.852 160.383 162.105C160.383 162.105 162.982 148.356 164.129 135.392C164.827 127.501 164.333 124.295 160.044 119.613C153.635 112.616 126.095 100.024 126.095 100.024Z" fill="#273E47"/>
<path d="M135.546 128.952C132.029 124.554 122.516 114.48 122.516 114.48C122.516 114.48 125.889 110.718 125.396 104.261L112.936 114.34L132.91 133.499C135.084 134.026 137.06 134.453 138.687 134.781C138.117 132.817 137.183 131 135.546 128.952Z" fill="#17282F"/>
<path d="M136.115 164.407C136.115 164.407 134.064 181.439 133.837 183.731C133.61 186.022 133.899 187.827 134.126 189.282C134.293 190.347 134.779 191.335 135.281 192.277C135.672 193.01 136.595 194.272 136.01 195.07C135.795 195.364 135.476 195.564 135.155 195.736C134.469 196.104 133.721 196.322 133.043 196.683C132.276 197.091 131.349 197.239 130.492 197.339C129.453 197.459 128.381 197.48 127.382 197.173C124.757 196.364 123.699 193.347 122.665 191.104C121.874 189.386 122.443 188.542 122.405 186.717C122.361 184.678 119.705 166.837 119.388 164.821C122.873 161.257 132.052 163.119 136.115 164.407Z" fill="#955F4E"/>
<path d="M120.874 194.422C120.821 195.218 120.996 195.869 121.233 196.611C121.471 197.352 124.014 199.183 124.898 200.407C125.782 201.633 125.888 202.124 126.889 203.796C127.998 205.649 128.565 207.907 133.633 209.854C138.769 211.826 142.161 211.079 144.578 210.382C146.995 209.684 147.765 208.497 147.765 208.497C147.765 208.497 148.681 205.594 147.088 204.895C145.495 204.196 120.874 194.422 120.874 194.422Z" fill="#17282F"/>
<path d="M134.144 187.909C134.515 188.301 134.698 189.396 134.852 189.904C135.373 191.614 136.641 193.21 137.784 194.562C143.192 200.959 148.488 200.977 148.174 206.352C148.014 207.856 145.132 210.024 138.572 209.993C135.221 209.977 130.224 207.54 128.788 205.386C127.353 203.232 126.775 201.376 125.609 199.797C124.443 198.219 121.505 196.248 120.874 194.422C120.504 193.35 120.594 192.152 120.728 191.045C120.839 190.135 121.407 188.401 121.544 187.492C121.693 186.509 121.548 185.919 122.321 185.873L122.646 187.303C123.322 189.668 123.799 189.533 124.654 190.162C125.545 190.819 126.237 191.834 126.978 192.674C126.596 191.07 125.969 190.042 126.816 189.287C127.61 188.579 128.77 188.173 130.942 187.844C133.114 187.516 133.815 187.56 134.144 187.909Z" fill="#4B3832"/>
<path d="M138.709 209.993C138.664 209.993 138.618 209.993 138.572 209.993C137.751 209.989 136.83 209.84 135.888 209.585C136.83 209.84 137.751 209.989 138.572 209.993C138.618 209.993 138.663 209.993 138.709 209.993C145.172 209.993 148.015 207.846 148.174 206.352C148.016 207.846 145.172 209.993 138.709 209.993Z" fill="#4B3832"/>
<path d="M134.685 206.727C133.6 206.727 132.336 206.384 131.667 206.22C130.441 205.919 129.384 205.091 128.488 204.235C128.255 204.013 128.03 203.783 127.811 203.547C127.713 203.441 127.611 203.297 127.501 203.167C127.824 203.792 128.181 204.445 128.621 205.13C127.306 203.085 126.729 201.313 125.609 199.797C124.443 198.219 121.505 196.248 120.874 194.422C120.679 193.857 120.612 193.257 120.611 192.653C120.611 192.112 120.665 191.568 120.728 191.045C120.839 190.135 121.407 188.401 121.544 187.492C121.693 186.509 121.548 185.919 122.321 185.873L122.646 187.303C123.322 189.668 123.799 189.533 124.654 190.162C125.546 190.819 126.237 191.834 126.978 192.674C126.736 191.656 126.394 190.87 126.394 190.238C126.394 189.875 126.507 189.563 126.816 189.287C127.61 188.579 128.77 188.173 130.942 187.844C131.942 187.693 132.629 187.621 133.112 187.621C133.68 187.621 133.966 187.72 134.144 187.909C134.515 188.301 134.698 189.396 134.853 189.904C135.373 191.614 136.641 193.21 137.784 194.562C143.039 200.778 148.188 200.971 148.187 205.908C148.187 206.035 148.184 206.164 148.177 206.297C148.291 204.077 147.431 202.777 146.007 201.552C145.81 201.621 145.6 201.676 145.37 201.699C145.336 201.703 145.3 201.704 145.262 201.704C144.772 201.704 143.988 201.43 143.533 201.201C143.044 200.955 142.496 200.408 142.192 200.062C142.192 200.062 142.189 200.062 142.183 200.062C142.066 200.062 140.828 200.08 138.66 200.797C136.895 201.38 135.288 202.71 135.288 202.71C135.288 202.71 135.941 203.491 136.152 203.819C136.653 204.597 136.845 205.588 136.336 206.183C135.987 206.59 135.372 206.727 134.685 206.727Z" fill="#4B3832"/>
<path d="M148.175 206.332C148.175 206.329 148.175 206.326 148.175 206.323C148.175 206.326 148.175 206.329 148.175 206.332ZM148.176 206.315C148.176 206.314 148.176 206.311 148.176 206.31C148.176 206.312 148.176 206.313 148.176 206.315Z" fill="#A4A6A5"/>
<path d="M138.71 209.993C138.663 209.993 138.618 209.993 138.572 209.993C137.751 209.989 136.83 209.84 135.888 209.585C132.985 208.799 129.872 207.011 128.788 205.386C128.733 205.302 128.678 205.219 128.625 205.136C128.625 205.135 128.624 205.135 128.624 205.134C128.623 205.133 128.622 205.131 128.621 205.13C128.181 204.445 127.824 203.792 127.501 203.167C127.611 203.297 127.713 203.441 127.811 203.547C128.03 203.783 128.255 204.013 128.488 204.235C129.384 205.091 130.441 205.919 131.667 206.22C132.336 206.384 133.6 206.727 134.685 206.727C135.372 206.727 135.987 206.59 136.336 206.183C136.845 205.588 136.653 204.597 136.152 203.819C135.941 203.491 135.288 202.71 135.288 202.71C135.288 202.71 136.895 201.38 138.66 200.797C140.828 200.08 142.066 200.062 142.183 200.062C142.189 200.062 142.192 200.062 142.192 200.062C142.496 200.408 143.044 200.955 143.533 201.201C143.988 201.43 144.772 201.704 145.262 201.704C145.3 201.704 145.336 201.703 145.37 201.699C145.6 201.676 145.81 201.621 146.007 201.552C147.431 202.777 148.291 204.077 148.177 206.297C148.177 206.298 148.176 206.3 148.176 206.301C148.176 206.304 148.176 206.307 148.176 206.31C148.176 206.311 148.176 206.314 148.176 206.315C148.175 206.318 148.175 206.321 148.175 206.323C148.175 206.326 148.175 206.329 148.175 206.332C148.175 206.334 148.175 206.336 148.174 206.337C148.174 206.342 148.174 206.347 148.174 206.352C148.016 207.846 145.172 209.993 138.71 209.993Z" fill="#C8C8C8"/>
<path d="M137.784 194.561C139.462 196.546 141.128 197.916 142.621 199.023C143.805 200.916 143.347 201.396 142.436 200.794C141.52 200.188 138.871 196.255 136.606 193.096C136.991 193.609 137.394 194.1 137.784 194.561Z" fill="#273E47"/>
<path d="M123.289 190.562C122.41 190.025 121.782 189.121 121.427 188.073C121.476 187.86 121.519 187.659 121.544 187.492C121.693 186.509 121.548 185.919 122.321 185.873L122.646 187.303C123.322 189.668 123.799 189.533 124.654 190.163C125.546 190.819 126.237 191.834 126.978 192.674C129.26 195.535 129.722 196.872 132.123 199.264C134.523 201.657 136.717 202.527 136.573 203.018C136.429 203.509 135.534 204.028 133.307 202.495C131.079 200.963 128.255 197.223 127.087 195.234C125.919 193.245 124.525 191.319 123.289 190.562Z" fill="#273E47"/>
<path d="M135.325 203.043C135.389 203.036 135.452 203.011 135.505 202.966C137.349 201.411 139.66 200.57 142.376 200.47C142.561 200.457 142.706 200.308 142.699 200.122C142.693 199.937 142.537 199.792 142.352 199.8C139.482 199.906 137.033 200.799 135.072 202.453C134.931 202.573 134.912 202.785 135.032 202.926C135.107 203.015 135.218 203.055 135.325 203.043Z" fill="#E7E8E5"/>
<path d="M133.383 200.972C133.446 200.965 133.508 200.94 133.562 200.899C135.518 199.328 137.967 198.471 140.837 198.355C141.048 198.342 141.175 198.186 141.168 197.997C141.16 197.806 140.999 197.658 140.809 197.666C137.785 197.792 135.204 198.696 133.13 200.361C132.982 200.48 132.958 200.697 133.077 200.845C133.154 200.94 133.27 200.984 133.383 200.972Z" fill="#E7E8E5"/>
<path d="M130.918 199.106C130.987 199.098 131.056 199.072 131.114 199.024C133.273 197.294 135.975 196.349 139.137 196.221C139.339 196.216 139.509 196.035 139.501 195.826C139.492 195.616 139.315 195.453 139.105 195.461C135.779 195.6 132.926 196.597 130.638 198.432C130.475 198.563 130.449 198.803 130.58 198.967C130.665 199.071 130.793 199.12 130.918 199.106Z" fill="#E7E8E5"/>
<path d="M129.121 197.12C129.189 197.113 129.255 197.087 129.313 197.04C131.428 195.342 134.072 194.417 137.179 194.29C137.377 194.282 137.544 194.109 137.535 193.903C137.527 193.697 137.354 193.538 137.148 193.547C133.888 193.679 131.088 194.66 128.847 196.46C128.687 196.588 128.661 196.823 128.79 196.983C128.872 197.086 128.998 197.134 129.121 197.12Z" fill="#E7E8E5"/>
<path d="M127.7 194.768C127.768 194.761 127.834 194.734 127.892 194.688C130.009 192.991 132.649 192.066 135.759 191.939C135.961 191.93 136.124 191.758 136.115 191.552C136.107 191.346 135.934 191.186 135.727 191.195C132.463 191.329 129.669 192.308 127.426 194.107C127.266 194.236 127.24 194.471 127.368 194.631C127.451 194.734 127.578 194.781 127.7 194.768Z" fill="#E7E8E5"/>
<path d="M138.246 146.264C138.944 138.374 138.45 135.168 134.161 130.485C127.752 123.489 118.316 114.558 118.316 114.558C121.17 112.035 125.444 109.626 126.096 100.024C126.023 97.2083 119.323 94.8317 119.323 94.8317H85.665C85.665 94.8317 84.5406 97.0526 83.4773 100.024C80.4271 108.546 81.5188 120.19 89.3993 126.271C101.987 135.986 117.609 144.674 117.609 144.674C117.023 147.598 116.934 151.392 117.63 156.211C118.264 160.594 119.592 169.87 120.797 175.183C124.186 177.76 133.664 176.551 134.999 174.803C134.999 174.803 137.099 159.229 138.246 146.264Z" fill="#273E47"/>
<path d="M123.511 160.656C123.46 159.557 123.411 158.626 123.368 157.796C123.197 154.542 123.112 152.909 123.248 149C123.257 148.73 123.282 148.387 123.309 147.995C123.451 146.011 123.665 143.014 122.649 141.456C120.891 138.759 117.417 136.552 113.737 134.215C112.093 133.171 110.394 132.091 108.738 130.907C106.859 129.563 105.14 128.396 103.476 127.267C97.1918 123.004 93.0399 120.187 91.5197 115.313L91.275 114.525C89.553 108.966 88.6645 106.112 82.4466 103.782C82.414 103.946 82.3803 104.11 82.3508 104.276C88.2697 106.509 89.0816 109.125 90.8005 114.672L91.0452 115.46C92.6172 120.501 97.0547 123.512 103.197 127.679C104.858 128.806 106.575 129.971 108.449 131.311C110.116 132.503 111.821 133.587 113.471 134.635C117.103 136.941 120.534 139.121 122.233 141.728C123.158 143.146 122.943 146.159 122.814 147.96C122.786 148.359 122.761 148.708 122.751 148.983C122.615 152.913 122.701 154.554 122.871 157.822C122.915 158.651 122.964 159.582 123.015 160.679C123.044 161.287 123.076 161.868 123.108 162.422C123.292 165.668 123.424 168.013 122.304 169.097C121.77 169.614 120.942 169.854 119.749 169.842C119.779 170.009 119.808 170.176 119.838 170.342C121.125 170.341 122.032 170.052 122.649 169.454C123.933 168.212 123.795 165.772 123.604 162.394C123.573 161.841 123.54 161.261 123.511 160.656Z" fill="#17282F"/>
<path d="M90.668 17.5772C88.2195 19.3183 86.8173 22.2211 86.1907 25.1591C85.5641 28.097 85.6163 31.1302 85.4994 34.1324C85.4451 35.5243 85.2448 36.5684 84.3812 37.7197C83.7251 38.5942 82.934 39.3709 82.3772 40.311C81.436 41.9021 81.2528 43.9201 81.8929 45.654C82.2743 46.6879 82.9397 47.6767 82.8776 48.7767C82.8 50.151 81.6368 51.1693 80.8906 52.3258C79.7042 54.1647 79.5572 56.5822 80.3277 58.6307C80.9522 60.2916 82.134 61.6856 83.5699 62.7081C85.1708 63.848 86.4339 64.8838 88.4058 65.4411C91.0245 66.1805 93.8238 66.2737 96.486 65.7092C98.4305 65.2973 100.348 64.5072 101.765 63.1127C103.617 61.2898 104.418 58.6328 104.651 56.0441C105.144 50.5474 103.402 45.1325 101.934 39.8127C100.466 34.4935 99.2569 28.8173 100.789 23.5157C101.292 21.7751 102.406 18.7812 101.055 17.158C99.9932 15.881 96.7458 15.8246 95.2571 15.9778C93.6339 16.1444 92.0087 16.624 90.668 17.5772Z" fill="#17282F"/>
<path d="M99.1352 15.5328C98.5003 15.5825 97.8737 15.7739 97.3035 16.0621C96.4549 16.4926 95.7243 17.1291 95.0894 17.838C94.5171 18.4765 94.0147 19.1802 93.6282 19.9455C93.1873 20.8178 92.8976 21.8087 93.0658 22.7711C93.4756 25.1146 96.144 25.3076 98.0015 24.6789C99.6651 24.1154 101.05 22.9673 101.854 21.4113C102.284 20.5783 102.578 19.6547 102.551 18.7176C102.509 17.2393 101.579 15.8055 100.068 15.5669C99.7592 15.5183 99.4462 15.5085 99.1352 15.5328Z" fill="#4B3832"/>
<path d="M117.134 51.6557C121.553 51.5952 125.369 53.0657 127.172 56.2071C128.973 59.3484 130.3 64.3716 131.018 65.9182C131.736 67.4643 132.743 68.6709 134.079 71.7983C135.2 74.4201 136.675 78.7754 136.675 78.7754L152.157 74.9505L154.58 81.0008C154.58 81.0008 149.528 84.3103 146.091 86.3029C141.527 88.9486 137.961 90.4905 136.031 91.1828C133.605 92.0532 131.399 92.612 129.678 90.5976C127.956 88.5828 119.414 71.8894 119.414 71.8894L117.134 51.6557Z" fill="#955F4E"/>
<path d="M163.919 74.3301L163.684 73.7816L167.454 73.4531L169.048 73.8831L163.919 74.3301Z" fill="#4B3832"/>
<path d="M167.465 68.4278L167.454 73.4531L169.048 73.8831L169.06 67.6656L167.465 68.4278Z" fill="#4B3832"/>
<path d="M169.048 73.8831L167.454 73.4531L167.465 68.4278L169.06 67.6656L169.056 69.9345L169.054 70.5358L169.052 71.4936L169.048 73.8831Z" fill="#9B8F77"/>
<path d="M163.706 63.731L164.78 62.3179L169.06 67.6656L167.465 68.4278L163.706 63.731Z" fill="#4B3832"/>
<path d="M167.465 68.4278L163.706 63.731L164.78 62.3179L169.06 67.6656L167.465 68.4278Z" fill="#9B8F77"/>
<path d="M159.936 64.0596L159.651 62.765L164.78 62.3179L163.705 63.731L159.936 64.0596Z" fill="#4B3832"/>
<path d="M159.936 64.0596L159.651 62.765L164.78 62.3179L163.705 63.731L159.936 64.0596Z" fill="#9B8F77"/>
<path d="M159.651 62.765L159.638 69.0689L163.919 74.3301L163.684 73.7816L159.925 69.0849L159.936 64.0596L159.651 62.765Z" fill="#4B3832"/>
<path d="M163.919 74.3301L162.227 72.25C162.281 72.219 162.333 72.1885 162.385 72.159L163.684 73.7816L163.919 74.3301ZM159.64 68.3233L159.652 62.765L159.936 64.0596L159.927 68.1582C159.835 68.2115 159.738 68.2669 159.64 68.3233Z" fill="#4B3832"/>
<path d="M159.925 69.0849L159.936 64.0596L163.706 63.731L167.465 68.4278L167.454 73.453L163.684 73.7816L159.925 69.0849Z" fill="#4B3832"/>
<path d="M163.684 73.7816L162.385 72.1589C162.884 71.8723 163.284 71.6426 163.552 71.4884C163.73 71.389 163.906 71.3564 164.075 71.3564C164.235 71.3564 164.39 71.3859 164.534 71.4154C164.679 71.4449 164.813 71.4744 164.934 71.4744C165.019 71.4744 165.097 71.4594 165.167 71.4195C165.318 71.3336 165.418 70.9859 165.418 70.5021C165.418 69.7782 165.194 68.7501 164.581 67.8415C164.579 67.8389 164.577 67.8363 164.575 67.8337C164.575 67.8327 164.574 67.8322 164.574 67.8312C164.572 67.8291 164.571 67.8275 164.57 67.8255C164.569 67.8249 164.569 67.8244 164.569 67.8239C163.717 66.5759 162.371 66.0734 161.767 66.0734C161.645 66.0734 161.552 66.0941 161.502 66.134C161.2 66.3684 161.587 67.204 160.942 67.5755C160.862 67.6211 160.776 67.6702 160.685 67.723C160.683 67.724 160.682 67.7246 160.68 67.7256C160.679 67.7266 160.677 67.7272 160.676 67.7282C160.458 67.8534 160.207 67.9978 159.927 68.1582L159.936 64.0596L163.605 63.9784L167.202 68.5245L167.241 73.3082L163.684 73.7816Z" fill="#9B8F77"/>
<path d="M169.048 73.8831L172.026 72.1714L172.039 65.9545L169.061 67.6656L169.048 73.8831Z" fill="#4B3832"/>
<path d="M169.048 73.8831L169.061 67.6656L172.039 65.9545L172.026 72.1714L171.431 72.5134L170.893 72.8228L170.356 73.1312L169.048 73.8831Z" fill="#9B8F77"/>
<path d="M164.78 62.3179L169.06 67.6656L172.039 65.9544L167.759 60.6068L164.78 62.3179Z" fill="#4B3832"/>
<path d="M169.06 67.6656L164.78 62.3179L167.759 60.6068L172.039 65.9544L169.06 67.6656Z" fill="#9B8F77"/>
<path d="M159.651 62.765L162.63 61.0538L167.758 60.6068L164.78 62.3179L159.651 62.765Z" fill="#4B3832"/>
<path d="M159.651 62.765L162.63 61.0538L167.758 60.6068L164.78 62.3179L159.651 62.765Z" fill="#9B8F77"/>
<path d="M169.047 73.8831C169.072 72.8466 169.113 71.8107 169.123 70.7743C169.14 69.7384 169.162 68.702 169.164 67.6661V67.6294L169.142 67.6009L167.01 64.9201L164.857 62.2564L164.823 62.215L164.771 62.2201C163.063 62.3893 161.356 62.5663 159.651 62.765C161.348 62.6667 163.042 62.5472 164.735 62.4199L166.83 65.064L168.956 67.7029C168.955 68.7269 168.972 69.7503 168.984 70.7743C168.99 71.8102 169.027 72.8466 169.047 73.8831Z" fill="#4B3832"/>
<path d="M167.759 60.6068L169.007 60.8536L172.571 65.3061L172.039 65.9544L167.759 60.6068Z" fill="#4B3832"/>
<path d="M172.039 65.9544L167.759 60.6068L169.007 60.8536L172.571 65.3061L172.039 65.9544Z" fill="#9B8F77"/>
<path d="M172.56 70.4825L172.026 72.1714L172.039 65.9544L172.571 65.3061L172.56 70.4825Z" fill="#4B3832"/>
<path d="M172.026 72.1714L172.039 65.9544L172.571 65.3061L172.56 70.4825L172.026 72.1714Z" fill="#9B8F77"/>
<path d="M172.026 72.1714C172.068 71.1355 172.102 70.0996 172.119 69.0631C172.145 68.0272 172.142 66.9908 172.154 65.9549L172.155 65.9146L172.129 65.8825C171.415 64.9915 170.695 64.1051 169.972 63.2219C169.245 62.3417 168.508 61.4688 167.759 60.6068C168.436 61.5268 169.126 62.4369 169.826 63.3388C170.529 64.2386 171.236 65.1348 171.949 66.0263L171.923 65.9544C171.932 66.9903 171.924 68.0267 171.946 69.0626C171.958 70.0991 171.988 71.1355 172.026 72.1714Z" fill="#4B3832"/>
<path d="M163.684 73.7816L167.241 73.3082L167.202 68.5245L163.605 63.9784L159.936 64.0596L163.706 63.731L167.465 68.4278L167.454 73.453L163.684 73.7816Z" fill="#9B8F77"/>
<path d="M149.82 79.3781C149.519 79.5504 149.105 79.5246 148.647 79.2591C147.732 78.7282 146.992 77.4398 146.994 76.3817C146.995 75.8524 147.181 75.4814 147.482 75.3085C147.665 75.2035 161.405 67.309 161.588 67.2045C161.888 67.0317 162.303 67.0576 162.761 67.323C163.676 67.8544 164.416 69.1423 164.414 70.201C164.413 70.7298 164.226 71.1013 163.926 71.2741C163.743 71.3787 150.003 79.2731 149.82 79.3781Z" fill="#4B3832"/>
<path d="M147.482 75.3085C147.642 75.2164 158.196 69.1526 160.942 67.5755C161.587 67.204 161.2 66.3684 161.502 66.134C161.804 65.899 163.557 66.3254 164.581 67.8415C165.604 69.357 165.543 71.2048 165.167 71.4195C164.999 71.5158 164.781 71.4656 164.535 71.4154C164.233 71.3538 163.888 71.2917 163.534 71.4992C161.27 72.8 149.985 79.2829 149.82 79.3781C149.519 79.5504 149.105 79.5246 148.647 79.2591C147.732 78.7282 146.992 77.4398 146.994 76.3817C146.995 75.8524 147.181 75.4814 147.482 75.3085Z" fill="#4B3832"/>
<path d="M152.938 76.9286L153.47 76.2803L153.216 75.9621C155.963 74.4274 158.76 72.9698 161.421 71.2907C161.841 71.0258 162.264 70.7464 162.995 70.2786C163.417 70.008 163.987 70.1286 164.308 69.636C164.453 69.4129 164.479 69.133 164.469 68.8676C164.443 68.1804 164.194 67.5078 163.778 66.9603C164.062 67.1958 164.334 67.4809 164.569 67.8239C164.569 67.8244 164.569 67.825 164.57 67.8255C164.571 67.8275 164.572 67.8291 164.574 67.8312C164.574 67.8322 164.575 67.8327 164.575 67.8338C164.577 67.8363 164.578 67.8389 164.581 67.8415C165.194 68.7501 165.418 69.7783 165.418 70.5021C165.418 70.9859 165.318 71.3337 165.167 71.4195C165.097 71.4594 165.019 71.4744 164.934 71.4744C164.813 71.4744 164.679 71.4449 164.534 71.4154C164.39 71.3859 164.235 71.3564 164.075 71.3564C163.9 71.3564 163.718 71.3911 163.534 71.4992C162.096 72.3251 157.023 75.2392 153.468 77.282L153.47 76.2803L152.938 76.9286Z" fill="#4B3832"/>
<path d="M146.994 76.3817C146.995 75.8524 147.181 75.4814 147.482 75.3085C147.783 75.1357 148.197 75.1616 148.655 75.427C149.57 75.9584 150.31 77.2468 150.308 78.305C150.307 78.8338 150.12 79.2053 149.82 79.3781C149.519 79.551 149.105 79.5246 148.647 79.2591C147.732 78.7282 146.992 77.4398 146.994 76.3817Z" fill="#4B3832"/>
<path d="M144.819 85.3043L144.584 84.7558L148.353 84.4273L149.947 84.8567L144.819 85.3043Z" fill="#4B3832"/>
<path d="M148.364 79.4019L148.353 84.4272L149.947 84.8567L149.96 78.6398L148.364 79.4019Z" fill="#4B3832"/>
<path d="M149.947 84.8567L148.353 84.4272L148.364 79.4019L149.96 78.6398L149.947 84.8567Z" fill="#9B8F77"/>
<path d="M144.605 74.7052L145.68 73.2921L149.96 78.6398L148.364 79.4019L144.605 74.7052Z" fill="#4B3832"/>
<path d="M148.364 79.4019L144.605 74.7052L145.68 73.2921L149.96 78.6398L148.364 79.4019Z" fill="#9B8F77"/>
<path d="M140.836 75.0338L140.551 73.7392L145.68 73.2921L144.605 74.7052L140.836 75.0338Z" fill="#4B3832"/>
<path d="M140.836 75.0338L140.551 73.7392L145.68 73.2921L144.605 74.7052L140.836 75.0338Z" fill="#9B8F77"/>
<path d="M140.551 73.7392L140.538 80.0431L144.819 85.3043L144.584 84.7558L140.825 80.0591L140.836 75.0338L140.551 73.7392Z" fill="#4B3832"/>
<path d="M144.819 85.3043L140.538 80.0431L140.551 73.7392L140.836 75.0338L140.825 80.0591L144.584 84.7558L144.819 85.3043Z" fill="#4B3832"/>
<path d="M140.825 80.0591L140.836 75.0338L144.605 74.7052L148.364 79.4019L148.353 84.4272L144.584 84.7558L140.825 80.0591Z" fill="#4B3832"/>
<path d="M144.584 84.7558L140.825 80.0591L140.836 75.0338L144.505 74.9525L148.101 79.4987L148.141 84.2824L144.584 84.7558Z" fill="#9B8F77"/>
<path d="M149.947 84.8567L152.926 83.1456L152.938 76.9286L149.96 78.6398L149.947 84.8567Z" fill="#4B3832"/>
<path d="M149.947 84.8567L149.96 78.6398L152.938 76.9286L152.926 83.1456L149.947 84.8567Z" fill="#9B8F77"/>
<path d="M145.68 73.2922L149.96 78.6398L152.938 76.9287L148.658 71.581L145.68 73.2922Z" fill="#4B3832"/>
<path d="M149.96 78.6398L145.68 73.2922L148.658 71.581L152.938 76.9287L149.96 78.6398Z" fill="#9B8F77"/>
<path d="M140.551 73.7392L143.53 72.028L148.658 71.581L145.68 73.2921L140.551 73.7392Z" fill="#4B3832"/>
<path d="M140.551 73.7392L143.53 72.028L148.658 71.581L145.68 73.2921L140.551 73.7392Z" fill="#9B8F77"/>
<path d="M149.947 84.8572C149.971 83.8208 150.012 82.7849 150.024 81.7485C150.039 80.7126 150.061 79.6762 150.064 78.6403V78.6036L150.041 78.5746L147.909 75.8943L145.756 73.2305L145.723 73.1892L145.671 73.1938C143.963 73.363 142.256 73.5405 140.551 73.7392C142.247 73.6409 143.941 73.5213 145.635 73.3941L147.73 76.0376L149.856 78.677C149.855 79.7005 149.872 80.7245 149.883 81.7485C149.891 82.7844 149.927 83.8208 149.947 84.8572Z" fill="#4B3832"/>
<path d="M148.658 71.581L149.907 71.8278L153.47 76.2803L152.938 76.9286L148.658 71.581Z" fill="#4B3832"/>
<path d="M152.938 76.9286L148.658 71.581L149.907 71.8278L153.47 76.2803L152.938 76.9286Z" fill="#9B8F77"/>
<path d="M153.459 81.4561L152.926 83.1456L152.938 76.9286L153.47 76.2803L153.459 81.4561Z" fill="#4B3832"/>
<path d="M152.926 83.1456L152.938 76.9286L153.47 76.2803L153.459 81.4561L152.926 83.1456Z" fill="#9B8F77"/>
<path d="M152.926 83.1456C152.968 82.1097 153.002 81.0733 153.019 80.0374C153.044 79.0015 153.041 77.965 153.054 76.9291L153.054 76.8888L153.029 76.8567C152.315 75.9652 151.595 75.0793 150.872 74.1961C150.145 73.3159 149.408 72.443 148.658 71.581C149.335 72.501 150.026 73.4111 150.725 74.313C151.428 75.2128 152.135 76.109 152.848 77.0006L152.823 76.9286C152.831 77.9645 152.824 79.0009 152.845 80.0368C152.857 81.0733 152.888 82.1097 152.926 83.1456Z" fill="#4B3832"/>
<path d="M144.584 84.7558L148.141 84.2824L148.101 79.4987L144.505 74.9525L140.835 75.0338L144.605 74.7052L148.364 79.4019L148.353 84.4272L144.584 84.7558Z" fill="#9B8F77"/>
<path d="M154.258 73.3599C155.062 74.2913 155.439 76.1877 154.367 76.792L153.47 77.281L153.459 81.4044L153.78 81.5203C155.883 80.3959 158.087 79.8314 159.562 78.9994C161.036 78.1679 162.711 77.5847 163.211 76.4247C163.711 75.2646 164.325 70.7541 164.293 69.8585C164.261 68.9628 162.803 68.1634 160.325 67.6164C157.846 67.069 157.233 67.3588 156.698 67.857C156.164 68.3548 156.038 68.7744 156.038 68.7744C156.038 68.7744 154.98 68.6689 154.284 69.0689C153.587 69.4688 153.452 70.4846 153.452 70.4846C153.452 70.4846 152.696 70.5994 152.031 71.122C151.367 71.6441 151.548 72.9724 151.548 72.9724L152.205 72.5951C152.591 72.383 153.606 72.605 154.224 73.3196L154.242 73.3408L154.258 73.3599Z" fill="#A1655C"/>
<path d="M111.895 51.3365C111.895 51.3365 102.527 50.9453 96.7598 52.2001C93.4736 52.9146 90.295 53.6897 90.295 53.6897C88.9533 55.3693 83.0308 62.158 83.5927 65.7883C84.0744 68.9012 88.8777 81.0795 89.3993 85.0435C86.4955 90.4098 83.0742 100.248 83.0742 100.248C91.0784 107.796 120.82 108.827 126.096 100.024C126.096 100.024 126.08 94.3712 124.462 88.3173C124.394 84.2006 124.673 80.8135 124.787 78.5492C124.787 78.5492 128.368 76.88 129.09 71.4076C129.544 67.9677 128.286 64.592 123.854 59.1548C119.382 53.6706 117.101 51.6557 117.101 51.6557L111.895 51.3365Z" fill="#2B3A67"/>
<path d="M83.3218 100.473C83.2454 100.406 83.1711 100.338 83.0984 100.27C83.1711 100.339 83.2454 100.406 83.3218 100.473Z" fill="#FCFDFC"/>
<path d="M89.4273 103.737C86.8939 102.884 84.7771 101.756 83.321 100.473C84.7916 101.766 86.9089 102.86 89.4273 103.737Z" fill="#60777C"/>
<path d="M83.0851 100.259C83.0815 100.255 83.0779 100.252 83.0742 100.248C83.0779 100.251 83.082 100.255 83.0851 100.259Z" fill="#FCFDFC"/>
<path d="M89.2508 84.1949C89.2498 84.1918 89.2493 84.1887 89.2488 84.1856C89.2493 84.1887 89.2503 84.1918 89.2508 84.1949ZM89.2446 84.1654C89.2441 84.1634 89.2436 84.1608 89.2431 84.1587C89.2436 84.1613 89.2441 84.1634 89.2446 84.1654ZM89.2415 84.1509C89.241 84.1499 89.241 84.1484 89.2405 84.1468C89.241 84.1484 89.241 84.1494 89.2415 84.1509Z" fill="white"/>
<path d="M89.4272 103.737C86.9089 102.86 84.7916 101.766 83.321 100.473C83.245 100.406 83.171 100.339 83.0985 100.271C83.0985 100.271 83.098 100.271 83.098 100.27C83.0944 100.267 83.0913 100.264 83.0877 100.261C83.0866 100.26 83.0861 100.26 83.0851 100.259C83.082 100.255 83.0778 100.251 83.0742 100.248C83.0742 100.248 83.0753 100.246 83.0768 100.241C83.1022 100.168 83.3221 99.5388 83.6817 98.5521C84.7931 95.5013 87.2395 89.035 89.3993 85.0435C89.3662 84.7931 89.3165 84.5105 89.2513 84.1985C89.2513 84.1975 89.2508 84.1965 89.2508 84.1949C89.2503 84.1918 89.2492 84.1887 89.2487 84.1856C89.2482 84.1835 89.2482 84.1825 89.2477 84.1804C89.2472 84.1778 89.2461 84.1747 89.2456 84.1716C89.2451 84.1696 89.2451 84.1675 89.2446 84.1654C89.2441 84.1634 89.2436 84.1613 89.243 84.1587C89.2425 84.1561 89.242 84.1535 89.2415 84.1509C89.241 84.1494 89.241 84.1483 89.2405 84.1468C88.2428 79.4294 83.9197 68.3776 83.5766 65.6667L83.5787 65.6641L90.0332 65.4965C90.0332 65.4965 91.9487 73.2052 94.9425 83.3293C95.4465 85.0326 95.2991 86.8566 94.5721 88.4772C92.313 93.5118 90.7182 98.5878 89.4272 103.737Z" fill="#5266A3"/>
<path d="M108.372 44.5493C110.811 43.3805 113.061 42.0698 115.153 40.3509C116.331 39.3828 116.668 37.9133 117.039 36.509C117.434 35.0131 118.036 33.6719 119.01 32.4627C120.004 31.2296 121.11 30.8757 121.7 29.3741C122.189 28.1297 122.456 26.0812 122.334 24.7503C122.228 23.5908 121.77 22.0012 121.219 20.7832C120.027 18.15 117.87 16.22 115.234 15.227C112.287 14.1176 108.356 13.8553 105.27 14.4814C99.9347 15.5633 97.6027 17.853 96.2423 21.2691C91.4338 24.1372 92.2012 30.7732 92.5846 32.2422C93.323 35.0695 95.178 38.6108 97.1147 40.7602C98.7529 42.5784 100.066 44.0666 100.872 46.3997C101.133 47.1567 100.8 47.5479 101.789 47.5111C102.769 47.4739 103.902 46.6791 104.768 46.2662C105.969 45.6929 107.171 45.1252 108.372 44.5493Z" fill="#17282F"/>
<path d="M119.906 19.1031C121.21 18.3875 122.809 18.2327 124.224 18.6845C125.64 19.1362 126.852 20.1886 127.499 21.5267C126.655 20.4624 125.355 19.8032 124.008 19.6262C122.662 19.4482 121.276 19.7297 120.044 20.3019C121.04 20.1162 122.027 20.6787 122.778 21.3586C124.229 22.6728 125.186 24.5211 125.423 26.4651C125.165 25.4633 124.469 24.6411 123.794 23.8567C123.123 23.0769 122.431 22.2796 121.525 21.7932C121.09 21.5604 120.615 21.4041 120.198 21.1407C119.782 20.8768 119.414 20.4686 119.374 19.9775" fill="#17282F"/>
<path d="M99.6523 49.2238C99.9984 46.3893 100.35 42.0294 100.35 42.0294C99.836 42.729 97.0429 43.7147 95.089 41.0318C92.8387 37.9422 93.1642 35.708 94.6922 34.1997C96.4375 32.4766 99.5276 32.8776 100.841 35.5651C101.005 35.903 102.041 35.3747 102.202 35.2386C102.638 34.8697 102.847 34.2814 102.945 33.7355C103.069 33.0458 102.995 32.6241 102.758 32.0445C102.563 31.5685 102.467 31.1768 102.675 30.6697C102.888 30.1492 103.291 29.7347 103.638 29.2918C104.552 28.1219 105.111 26.6777 105.22 25.1969C105.276 24.4492 105.225 23.6704 105.517 22.9807C105.94 21.9862 107.022 21.387 108.097 21.2861C109.173 21.1847 110.245 21.5055 111.244 21.9153C111.786 22.1373 112.327 22.3898 112.908 22.4514C113.481 22.5119 114.073 22.3774 114.563 22.0752C115.381 21.5707 115.975 20.6 116.931 20.5099C117.638 20.4432 118.286 20.9016 118.788 21.4036C120.131 22.7453 120.819 24.5521 121.345 26.3399C122.184 29.1956 122.277 32.2479 122.175 35.2035C121.928 42.2793 120.313 45.5428 118.021 46.6154C116.652 47.256 115.372 47.6591 112.747 47.4909C112.747 47.4909 112.656 48.3773 112.521 49.6848C112.422 50.6426 112.572 51.1952 113.79 51.4524C114.953 53.0047 117.832 56.8073 110.961 57.1477C102.098 57.5876 97.6446 53.2887 96.794 52.2001C99.169 51.648 99.435 51.0032 99.6523 49.2238Z" fill="#955F4E"/>
<path d="M104.047 35.6262C104.303 37.0559 103.603 38.6946 102.25 39.2244C102.628 38.4353 102.901 37.5754 102.877 36.7009C102.853 35.8265 102.499 34.9339 101.808 34.3952C101.537 34.1836 101.223 34.032 100.951 33.8204C100.68 33.6087 100.444 33.3123 100.425 32.9687C100.338 31.3636 102.093 32.578 102.553 33.0184C103.289 33.7205 103.866 34.6141 104.047 35.6262Z" fill="#17282F"/>
<path d="M111.169 38.9747L118.15 38.7764C118.049 40.4164 116.405 41.7911 114.479 41.8464C112.55 41.9014 111.07 40.6159 111.169 38.9747Z" fill="#C35363"/>
<path d="M111.863 39.9857C113.726 39.4129 115.627 40.0005 116.442 41.3046C115.865 41.6236 115.197 41.8234 114.488 41.8429C113.061 41.8815 111.882 41.1992 111.361 40.1866C111.525 40.1153 111.686 40.04 111.863 39.9857Z" fill="#F57F6D"/>
<path d="M120.54 28.3651L117.584 28.0997C117.627 27.2749 118.324 26.6659 119.14 26.7393C119.956 26.8128 120.583 27.5408 120.54 28.3651Z" fill="#17282F"/>
<path d="M106.559 28.806L109.497 28.17C109.35 27.3463 108.574 26.8211 107.762 26.997C106.952 27.1729 106.413 27.9827 106.559 28.806Z" fill="#17282F"/>
<path d="M117.274 32.1372C117.235 32.8114 117.757 33.4049 118.439 33.4634C119.122 33.5213 119.706 33.021 119.745 32.3467C119.784 31.6715 119.262 31.0785 118.58 31.0211C117.898 30.9631 117.313 31.463 117.274 32.1372Z" fill="#17282F"/>
<path d="M108.315 32.5237C108.276 33.1984 108.797 33.7914 109.48 33.8499C110.162 33.9078 110.746 33.4075 110.785 32.7333C110.825 32.058 110.303 31.465 109.621 31.4076C108.939 31.3497 108.353 31.8495 108.315 32.5237Z" fill="#17282F"/>
<path d="M112.747 47.4909C108.035 47.1044 103.505 45.6499 102.408 43.5269C102.408 43.5269 102.526 45.4108 104.455 46.4954C107.159 48.0151 112.627 48.651 112.627 48.651L112.747 47.4909Z" fill="#A2655C"/>
<path d="M62.1217 120.103L62.3934 119.572L58.655 118.986L57.0354 119.306L62.1217 120.103Z" fill="#4B3832"/>
<path d="M58.9882 113.972L58.655 118.986L57.0354 119.306L57.4483 113.103L58.9882 113.972Z" fill="#4B3832"/>
<path d="M57.0354 119.306L57.4483 113.103L58.9882 113.972L58.655 118.986L57.0354 119.306Z" fill="#9B8F77"/>
<path d="M63.06 109.543L62.0847 108.06L57.4485 113.103L58.9884 113.972L63.06 109.543Z" fill="#4B3832"/>
<path d="M58.9884 113.972L57.4485 113.103L62.0847 108.06L63.06 109.543L58.9884 113.972Z" fill="#9B8F77"/>
<path d="M66.7978 110.13L67.1703 108.857L62.0845 108.06L63.0598 109.543L66.7978 110.13Z" fill="#4B3832"/>
<path d="M66.7978 110.13L63.0598 109.543L62.0845 108.06L67.1703 108.857L66.7978 110.13Z" fill="#9B8F77"/>
<path d="M67.1704 108.857L66.7523 115.147L62.1218 120.103L62.3935 119.572L66.4646 115.144L66.7979 110.13L67.1704 108.857Z" fill="#4B3832"/>
<path d="M62.1218 120.103L62.3935 119.572L63.7999 118.042C63.8501 118.075 63.9002 118.109 63.9525 118.144L62.1218 120.103ZM66.8015 114.403C66.7068 114.34 66.6152 114.278 66.5262 114.219L66.7979 110.13L67.1704 108.857L66.8015 114.403Z" fill="#4B3832"/>
<path d="M66.4646 115.144L66.7978 110.13L63.0599 109.543L58.9883 113.972L58.655 118.986L62.3935 119.572L66.4646 115.144Z" fill="#4B3832"/>
<path d="M62.3934 119.572L58.877 118.857L59.2438 114.086L63.1427 109.797L66.7978 110.13L66.5261 114.219C66.1412 113.961 65.8116 113.74 65.5539 113.568C64.935 113.153 65.379 112.346 65.0939 112.091C65.0354 112.039 64.9133 112.01 64.7472 112.01C64.1108 112.01 62.8224 112.431 61.9303 113.553C61.9298 113.553 61.9298 113.553 61.9298 113.553C61.9282 113.556 61.9267 113.558 61.9246 113.56C61.9241 113.561 61.9236 113.561 61.9231 113.562C61.9215 113.564 61.9205 113.565 61.9195 113.567C61.9184 113.568 61.9174 113.569 61.9169 113.57C61.9158 113.571 61.9148 113.573 61.9138 113.574C61.9127 113.575 61.9122 113.576 61.9112 113.577C61.9091 113.58 61.9076 113.582 61.9055 113.585C61.1609 114.539 60.8804 115.672 60.8804 116.398C60.8804 116.768 60.9534 117.033 61.075 117.114C61.1573 117.169 61.254 117.186 61.3622 117.186C61.4646 117.186 61.5774 117.17 61.6964 117.154C61.816 117.138 61.9417 117.122 62.0716 117.122C62.2713 117.122 62.4798 117.16 62.6847 117.295C62.8198 117.386 62.9895 117.499 63.1897 117.633C63.1908 117.634 63.1918 117.635 63.1934 117.635C63.1939 117.636 63.1944 117.637 63.1949 117.637C63.3739 117.757 63.5768 117.893 63.7998 118.042L62.3934 119.572Z" fill="#9B8F77"/>
<path d="M57.0356 119.306L54.1814 117.395L54.5938 111.191L57.4485 113.103L57.0356 119.306Z" fill="#4B3832"/>
<path d="M57.0356 119.306L54.1814 117.395L54.5938 111.191L57.4485 113.103L57.0356 119.306Z" fill="#9B8F77"/>
<path d="M62.0846 108.06L57.4484 113.103L54.5938 111.191L59.2299 106.149L62.0846 108.06Z" fill="#4B3832"/>
<path d="M57.4484 113.103L54.5938 111.191L59.2299 106.149L62.0846 108.06L57.4484 113.103Z" fill="#9B8F77"/>
<path d="M67.1705 108.857L64.3158 106.946L59.23 106.149L62.0847 108.06L67.1705 108.857Z" fill="#4B3832"/>
<path d="M67.1705 108.857L62.0847 108.06L59.23 106.149L64.3158 106.946L67.1705 108.857Z" fill="#9B8F77"/>
<path d="M57.3117 116.209C57.3929 115.189 57.4804 114.168 57.5492 113.147L59.8507 110.659L62.1223 108.165C63.8029 108.408 65.4851 108.643 67.1703 108.857C65.4825 108.542 63.792 108.249 62.0995 107.963L62.0483 107.954L62.0121 107.994L59.6815 110.504L57.3717 113.032L57.3464 113.059L57.3443 113.096C57.276 114.13 57.2274 115.165 57.172 116.2C57.1125 117.234 57.082 118.271 57.0354 119.306C57.127 118.273 57.2341 117.242 57.3117 116.209Z" fill="#4B3832"/>
<path d="M59.23 106.149L57.968 106.31L54.1079 110.508L54.5938 111.191L59.23 106.149Z" fill="#4B3832"/>
<path d="M54.5938 111.191L54.1079 110.508L57.968 106.31L59.23 106.149L54.5938 111.191Z" fill="#9B8F77"/>
<path d="M53.7642 115.673L54.1812 117.395L54.5936 111.191L54.1077 110.508L53.7642 115.673Z" fill="#4B3832"/>
<path d="M54.1812 117.395L53.7642 115.673L54.1077 110.508L54.5936 111.191L54.1812 117.395Z" fill="#9B8F77"/>
<path d="M54.1814 117.395C54.2104 116.358 54.2466 115.323 54.3009 114.288C54.3465 113.252 54.4204 112.219 54.4784 111.184L54.481 111.144L54.5089 111.113C55.282 110.273 56.0607 109.438 56.8431 108.607C57.6285 107.778 58.4233 106.958 59.23 106.149C58.4911 107.021 57.7408 107.881 56.9807 108.734C56.2175 109.583 55.4512 110.429 54.6786 111.27L54.7092 111.199C54.63 112.232 54.5664 113.267 54.4743 114.299C54.391 115.332 54.2895 116.364 54.1814 117.395Z" fill="#4B3832"/>
<path d="M62.3935 119.572L58.655 118.986L58.9883 113.972L63.0599 109.543L66.7978 110.13L63.1427 109.797L59.2439 114.086L58.877 118.857L62.3935 119.572Z" fill="#9B8F77"/>
<path d="M75.8419 126.104C76.1301 126.297 76.5456 126.299 77.0206 126.065C77.9701 125.599 78.7964 124.364 78.8668 123.308C78.902 122.78 78.7411 122.397 78.4529 122.204C78.278 122.087 65.1099 113.271 64.935 113.154C64.6468 112.961 64.2313 112.958 63.7568 113.192C62.8068 113.659 61.9804 114.894 61.9101 115.95C61.8749 116.477 62.0358 116.861 62.324 117.054C62.4989 117.171 75.667 125.987 75.8419 126.104Z" fill="#4B3832"/>
<path d="M78.4528 122.204C78.2997 122.101 68.1849 115.33 65.5538 113.568C64.935 113.154 65.3789 112.346 65.0938 112.091C64.8087 111.837 63.0303 112.142 61.9054 113.585C60.7805 115.027 60.7153 116.874 61.0749 117.114C61.2348 117.221 61.4511 117.187 61.6963 117.154C62.0037 117.113 62.3566 117.071 62.6996 117.305C64.8692 118.758 75.6836 125.998 75.8419 126.104C76.1301 126.297 76.5456 126.299 77.0201 126.065C77.9701 125.599 78.7964 124.364 78.8668 123.308C78.902 122.78 78.7411 122.397 78.4528 122.204Z" fill="#4B3832"/>
<path d="M61.9298 113.553C61.9298 113.553 61.9298 113.553 61.9303 113.553C61.9298 113.553 61.9298 113.553 61.9298 113.553Z" fill="#8D3CA0"/>
<path d="M72.3456 123.763C69.5732 121.907 65.8374 119.406 63.7997 118.042C63.5767 117.893 63.3739 117.757 63.1948 117.637C63.0003 117.506 62.8332 117.395 62.6997 117.305C62.4896 117.162 62.2759 117.122 62.0715 117.122C61.9416 117.122 61.8159 117.138 61.6964 117.154C61.5774 117.17 61.4646 117.186 61.3621 117.186C61.254 117.186 61.1572 117.169 61.0749 117.114C60.9533 117.033 60.8804 116.768 60.8804 116.398C60.8804 115.672 61.1608 114.539 61.9054 113.585C61.9075 113.582 61.909 113.58 61.9111 113.577C61.9121 113.576 61.9127 113.575 61.9137 113.574C61.9147 113.573 61.9158 113.571 61.9168 113.57C61.9173 113.569 61.9183 113.568 61.9194 113.567C61.9204 113.565 61.9214 113.564 61.923 113.562C61.9235 113.561 61.924 113.561 61.9246 113.56C61.9266 113.558 61.9282 113.556 61.9297 113.553C61.9297 113.553 61.9297 113.553 61.9302 113.553C62.1843 113.233 62.4715 112.973 62.7659 112.76C62.3142 113.278 62.0192 113.932 61.9468 114.616C61.9189 114.88 61.9256 115.161 62.0549 115.393C62.3411 115.907 62.9175 115.825 63.3206 116.125C64.017 116.641 64.4206 116.949 64.8216 117.242C67.3617 119.099 70.0518 120.745 72.6882 122.464L72.4124 122.764L72.3456 123.763Z" fill="#4B3832"/>
<path d="M78.8669 123.308C78.902 122.78 78.7411 122.397 78.4529 122.204C78.1647 122.011 77.7492 122.008 77.2747 122.242C76.3247 122.709 75.4984 123.944 75.428 125C75.3933 125.528 75.5537 125.911 75.842 126.104C76.1302 126.297 76.5457 126.299 77.0201 126.066C77.9702 125.599 78.7965 124.364 78.8669 123.308Z" fill="#4B3832"/>
<path d="M80.4264 132.358L80.6981 131.828L76.9596 131.242L75.3401 131.562L80.4264 132.358Z" fill="#4B3832"/>
<path d="M77.2929 126.227L76.9596 131.242L75.3401 131.562L75.753 125.358L77.2929 126.227Z" fill="#4B3832"/>
<path d="M75.3401 131.562L75.753 125.358L77.2929 126.227L76.9596 131.242L75.3401 131.562Z" fill="#9B8F77"/>
<path d="M81.3645 121.799L80.3891 120.316L75.7529 125.358L77.2928 126.227L81.3645 121.799Z" fill="#4B3832"/>
<path d="M77.2928 126.227L75.7529 125.358L80.3891 120.316L81.3645 121.799L77.2928 126.227Z" fill="#9B8F77"/>
<path d="M85.1024 122.385L85.475 121.113L80.3892 120.316L81.3645 121.799L85.1024 122.385Z" fill="#4B3832"/>
<path d="M85.1024 122.385L81.3645 121.799L80.3892 120.316L85.475 121.113L85.2877 121.752L85.1024 122.385Z" fill="#9B8F77"/>
<path d="M85.4751 121.113L85.057 127.403L80.4265 132.358L80.6982 131.828L84.7693 127.399L85.1025 122.385L85.4751 121.113Z" fill="#4B3832"/>
<path d="M80.4265 132.358L80.6982 131.828L84.7693 127.399L85.1025 122.385L85.4751 121.113L85.4192 121.956L85.057 127.403L80.4265 132.358Z" fill="#4B3832"/>
<path d="M84.7693 127.399L85.1025 122.385L81.3646 121.799L77.2929 126.227L76.9597 131.242L80.6982 131.828L84.7693 127.399Z" fill="#4B3832"/>
<path d="M80.6981 131.828L77.1816 131.112L77.5485 126.342L81.4473 122.053L85.1025 122.385L84.7693 127.399L80.6981 131.828Z" fill="#9B8F77"/>
<path d="M75.34 131.562L72.4858 129.65L72.8982 123.447L75.7529 125.358L75.34 131.562Z" fill="#4B3832"/>
<path d="M75.34 131.562L72.4858 129.65L72.8982 123.447L75.7529 125.358L75.34 131.562Z" fill="#9B8F77"/>
<path d="M80.3893 120.316L75.7531 125.358L72.8984 123.447L77.5346 118.404L80.3893 120.316Z" fill="#4B3832"/>
<path d="M75.7531 125.358L72.8984 123.447L77.5346 118.404L80.3893 120.316L75.7531 125.358Z" fill="#9B8F77"/>
<path d="M85.4749 121.113L82.6203 119.202L77.5344 118.404L80.3891 120.316L85.4749 121.113Z" fill="#4B3832"/>
<path d="M85.4749 121.113L80.3891 120.316L77.5344 118.404L82.6203 119.202L85.4749 121.113Z" fill="#9B8F77"/>
<path d="M75.6164 128.464C75.6976 127.444 75.7851 126.424 75.8539 125.402L78.1554 122.915L80.427 120.42C82.1076 120.663 83.7897 120.898 85.475 121.113C83.7872 120.798 82.0967 120.504 80.4042 120.219L80.353 120.21L80.3167 120.249L77.9862 122.759L75.6764 125.287L75.6511 125.315L75.649 125.351C75.5807 126.385 75.5321 127.42 75.4767 128.455C75.4172 129.49 75.3867 130.526 75.3401 131.562C75.4317 130.529 75.5388 129.498 75.6164 128.464Z" fill="#4B3832"/>
<path d="M77.5347 118.404L76.2726 118.566L72.4126 122.764L72.8985 123.447L77.5347 118.404Z" fill="#4B3832"/>
<path d="M72.8985 123.447L72.4126 122.764L76.2726 118.566L77.5347 118.404L72.8985 123.447Z" fill="#9B8F77"/>
<path d="M72.0688 127.928L72.4859 129.65L72.8983 123.447L72.4124 122.764L72.0688 127.928Z" fill="#4B3832"/>
<path d="M72.4859 129.65L72.0688 127.928L72.4124 122.764L72.8983 123.447L72.4859 129.65Z" fill="#9B8F77"/>
<path d="M72.4858 129.65C72.5148 128.614 72.551 127.578 72.6054 126.543C72.6509 125.508 72.7249 124.474 72.7828 123.44L72.7854 123.399L72.8134 123.369C73.5864 122.529 74.3651 121.694 75.1475 120.862C75.933 120.034 76.7277 119.214 77.5344 118.404C76.7955 119.276 76.0452 120.137 75.2851 120.989C74.5219 121.838 73.7556 122.685 72.9831 123.525L73.0136 123.455C72.9345 124.488 72.8708 125.522 72.7787 126.554C72.6954 127.587 72.594 128.619 72.4858 129.65Z" fill="#4B3832"/>
<path d="M80.6982 131.828L76.9597 131.242L77.2929 126.227L81.3646 121.799L85.1025 122.385L81.4474 122.053L77.5486 126.342L77.1817 131.112L80.6982 131.828Z" fill="#9B8F77"/>
<path d="M66.4879 111.513C66.8584 108.586 67.9957 98.5397 68.4391 95.4284C69.0218 91.3396 69.1578 89.0469 69.6799 86.5073C70.2636 83.6672 73.1447 76.6244 75.7365 69.8642C79.0822 61.1377 80.1512 58.7202 82.3881 56.8254C84.9369 54.6662 87.7528 54.0644 91.706 53.3519C95.3176 57.1467 92.5323 69.0994 90.5904 72.5998C88.4006 76.5468 82.6292 86.6243 82.6292 86.6243C82.6292 86.6243 80.3002 94.5384 78.3774 101.054C77.2738 104.793 76.0785 108.546 76.0785 108.546C75.6216 110.359 74.4833 112.7 74.9143 114.641C75.3458 116.581 76.0112 118.851 76.0112 118.851L75.026 119.922L73.6445 118.984C73.6445 118.984 72.6702 118.868 71.7497 120.245C71.1479 121.147 71.0097 122.867 71.4402 123.157C71.8707 123.447 72.3457 123.763 72.3457 123.763L72.0767 127.809C72.0767 127.809 70.9901 128.222 69.8745 128.423C68.7589 128.625 68.7398 128.221 67.8591 127.652C66.9784 127.084 66.477 127.556 65.7356 127.048C64.9941 126.539 64.8683 125.672 64.3794 125.427C63.8904 125.182 63.3621 124.839 63.0635 123.803C62.765 122.766 62.8436 120.202 62.7976 118.822C62.7515 117.443 66.2002 113.786 66.4879 111.513Z" fill="#955F4E"/>
<path d="M164.013 5.86719L134.356 23.0216C134.029 23.2104 133.763 23.6699 133.763 24.5584V40.1951C133.763 40.5905 134.03 41.037 134.359 41.2228L136.717 42.5634C137.046 42.7492 137.579 42.7466 137.906 42.5577L167.563 25.4039C167.89 25.2145 168.155 24.755 168.155 24.3767V8.22304C168.155 7.8448 167.888 7.38791 167.559 7.20215L165.201 5.86151C164.872 5.67575 164.34 5.67833 164.013 5.86719Z" fill="#4B3832"/>
<path d="M137.305 42.701C137.23 42.701 137.155 42.6954 137.083 42.684C137.15 42.6933 137.221 42.6985 137.292 42.6985C137.479 42.6985 137.668 42.6654 137.819 42.6007C137.83 42.5965 137.841 42.5914 137.852 42.5862C137.695 42.6628 137.5 42.701 137.305 42.701ZM137.64 42.64C137.44 42.64 137.313 42.4703 137.313 42.2157V26.0615C137.311 25.7743 137.42 25.6087 137.488 25.4784L133.971 23.4542C133.954 23.4945 133.932 23.539 133.91 23.5934C134.019 23.3062 134.178 23.124 134.356 23.0216L164.013 5.86718C164.178 5.77197 164.396 5.72385 164.614 5.72385C164.826 5.72385 165.039 5.76939 165.201 5.8615L167.559 7.20214C167.888 7.3879 168.155 7.84479 168.155 8.22304V24.3767C168.155 24.755 167.89 25.2145 167.563 25.4038L137.906 42.5577C137.899 42.5613 137.892 42.5655 137.885 42.5696C137.864 42.5805 137.842 42.5914 137.819 42.6007C137.755 42.6276 137.695 42.64 137.64 42.64ZM135.371 41.7981L134.359 41.2228C134.311 41.1953 134.265 41.1632 134.22 41.1255C134.265 41.1622 134.312 41.1948 134.36 41.2217L135.371 41.7981Z" fill="#9B8F77"/>
<path d="M137.906 42.5577C137.591 42.7409 137.014 42.7471 136.716 42.5644L134.36 41.2217C134.031 41.038 133.763 40.6034 133.763 40.1951V24.5583C133.763 23.8505 133.9 23.6197 133.971 23.4542L137.488 25.4783C137.42 25.6087 137.311 25.7743 137.313 26.0615V42.2157C137.313 42.5696 137.557 42.76 137.906 42.5577Z" fill="#4B3832"/>
<path d="M132.139 37.0279C131.766 36.8059 128.928 35.2066 128.838 35.1543C128.564 34.9872 128.465 34.582 128.72 34.3083L133.763 28.5265L137.313 30.5621L132.038 36.1969C131.792 36.4593 131.89 36.8468 132.139 37.0279Z" fill="#4B3832"/>
<path d="M132.139 37.0279C131.767 36.8059 128.928 35.2066 128.838 35.1543C128.674 35.0544 128.573 34.8697 128.573 34.6788C128.572 34.5499 128.617 34.4185 128.72 34.3083L133.763 28.5265L137.313 30.5621L133.763 34.3544L132.038 36.1969C131.939 36.3025 131.896 36.4282 131.895 36.5529C131.895 36.7376 131.99 36.9198 132.139 37.0279Z" fill="#9B8F77"/>
<path d="M167.563 7.8805L137.906 25.0349C137.579 25.2238 137.313 25.6832 137.313 26.0615V30.5637L132.037 36.1959C131.696 36.5622 131.946 37.0652 132.376 37.1045L137.313 36.7439V42.2157C137.313 42.5934 137.579 42.7466 137.906 42.5572L167.563 25.4038C167.89 25.2145 168.156 24.755 168.156 24.3767V8.22302C168.156 7.84478 167.89 7.69164 167.563 7.8805Z" fill="white"/>
<path d="M167.827 7.79978C167.748 7.79978 167.658 7.82565 167.563 7.8805L137.906 25.0349C137.579 25.2238 137.313 25.6832 137.313 26.0615V30.5637L132.037 36.1959C131.696 36.5622 131.946 37.0652 132.376 37.1045L137.313 36.7439V42.2157C137.313 42.4837 137.447 42.6384 137.642 42.6384C137.721 42.6384 137.811 42.6126 137.906 42.5572L167.563 25.4038C167.891 25.2144 168.156 24.755 168.156 24.3767V8.22302C168.156 7.95499 168.022 7.79978 167.827 7.79978ZM167.747 8.24631V24.3767C167.747 24.6075 167.558 24.9345 167.358 25.0499L137.722 42.1914V36.7439V36.304L137.283 36.3361L132.39 36.6937C132.337 36.6812 132.306 36.645 132.293 36.6119C132.287 36.5959 132.269 36.5472 132.336 36.4753L137.612 30.8431L137.722 30.7251V30.5637V26.0615C137.722 25.8307 137.911 25.5042 138.111 25.3888L167.747 8.24631Z" fill="#4B3832"/>
<path d="M140.722 35.1486C140.694 35.1067 140.679 35.0203 140.679 34.8899V34.7559C140.679 34.625 140.694 34.522 140.722 34.447C140.75 34.373 140.795 34.3176 140.857 34.2814L141.824 33.7231V28.4308L140.78 29.2504C140.719 29.2861 140.672 29.2458 140.641 29.1299C140.61 29.0135 140.594 28.8825 140.594 28.7387C140.594 28.6218 140.646 28.5167 140.749 28.422L142.358 27.0389C142.421 27.0032 142.479 26.9913 142.536 27.0032C142.593 27.0162 142.621 27.0524 142.621 27.114V33.2631L143.426 32.7985C143.488 32.7628 143.533 32.7659 143.562 32.8078C143.59 32.8502 143.604 32.9361 143.604 33.067V33.201C143.604 33.3319 143.59 33.4349 143.562 33.5089C143.533 33.5839 143.488 33.6393 143.426 33.675L140.857 35.1585C140.795 35.1942 140.75 35.1911 140.722 35.1486Z" fill="#273E47"/>
<path d="M144.224 32.9775V32.2246C144.224 32.0528 144.337 31.9012 144.564 31.7703L144.734 31.672C144.961 31.5411 145.074 31.5613 145.074 31.7331V32.4859C145.074 32.6582 144.961 32.8099 144.734 32.9408L144.564 33.0391C144.337 33.17 144.224 33.1498 144.224 32.9775Z" fill="#273E47"/>
<path d="M145.678 32.1377V31.3848C145.678 31.213 145.792 31.0614 146.019 30.9305L146.189 30.8322C146.415 30.7013 146.529 30.7215 146.529 30.8933V31.6461C146.529 31.8184 146.415 31.97 146.189 32.1009L146.019 32.1993C145.792 32.3302 145.678 32.31 145.678 32.1377Z" fill="#273E47"/>
<path d="M147.133 31.2979V30.545C147.133 30.3732 147.246 30.2216 147.473 30.0907L147.644 29.9924C147.87 29.8615 147.984 29.8817 147.984 30.0535V30.8063C147.984 30.9786 147.87 31.1303 147.644 31.2612L147.473 31.3595C147.246 31.4904 147.133 31.4702 147.133 31.2979Z" fill="#273E47"/>
<path d="M149.581 29.9257C149.548 29.8149 149.531 29.6933 149.531 29.5624C149.531 29.4802 149.538 29.4207 149.554 29.3844L151.334 24.963C151.498 24.5578 151.61 24.2479 151.666 24.0332C151.723 23.8179 151.752 23.6109 151.752 23.4112C151.752 23.1085 151.681 22.9155 151.539 22.8322C151.396 22.7494 151.204 22.7779 150.962 22.9176C150.782 23.0216 150.634 23.1421 150.518 23.2772C150.401 23.4133 150.269 23.5861 150.119 23.7967C150.041 23.9235 149.988 23.9964 149.956 24.014C149.894 24.0502 149.827 24.0166 149.755 23.9136C149.683 23.8112 149.647 23.7118 149.647 23.6151C149.647 23.4707 149.719 23.2932 149.864 23.0821C150.009 22.8721 150.188 22.6666 150.405 22.4653C150.622 22.2646 150.831 22.1057 151.032 21.9898C151.496 21.7218 151.867 21.668 152.146 21.8268C152.425 21.9857 152.564 22.337 152.564 22.8803C152.564 23.1214 152.539 23.359 152.49 23.5933C152.442 23.8283 152.355 24.1113 152.231 24.4445C152.107 24.7772 151.922 25.2315 151.674 25.8085L150.545 28.6988L152.409 27.6221C152.471 27.5869 152.516 27.5884 152.545 27.6267C152.573 27.665 152.587 27.7499 152.587 27.8808V28.0148C152.587 28.1457 152.573 28.2482 152.545 28.3227C152.516 28.3977 152.471 28.4531 152.409 28.4888L149.701 30.0524C149.655 30.0793 149.615 30.0369 149.581 29.9257Z" fill="#273E47"/>
<path d="M153.199 27.7954V27.0426C153.199 26.8708 153.312 26.7197 153.539 26.5883L153.709 26.4899C153.936 26.359 154.05 26.3792 154.05 26.5515V27.3044C154.05 27.4762 153.936 27.6278 153.709 27.7587L153.539 27.857C153.312 27.9884 153.199 27.9677 153.199 27.7954Z" fill="#273E47"/>
<path d="M154.653 26.9556V26.2027C154.653 26.031 154.767 25.8794 154.994 25.7484L155.164 25.6501C155.391 25.5192 155.505 25.5394 155.505 25.7112V26.4646C155.505 26.6364 155.391 26.788 155.164 26.9189L154.994 27.0172C154.767 27.1486 154.653 27.1279 154.653 26.9556Z" fill="#273E47"/>
<path d="M156.108 26.1159V25.363C156.108 25.1912 156.221 25.0396 156.449 24.9087L156.619 24.8104C156.845 24.6795 156.959 24.6996 156.959 24.8714V25.6243C156.959 25.7966 156.845 25.9482 156.619 26.0791L156.449 26.1774C156.221 26.3089 156.108 26.2882 156.108 26.1159Z" fill="#273E47"/>
<path d="M159.241 24.5289C159.02 24.5987 158.838 24.6231 158.696 24.6018C158.554 24.5801 158.483 24.5077 158.483 24.384C158.483 24.2877 158.521 24.1439 158.595 23.953C158.67 23.762 158.733 23.6513 158.785 23.6213C158.811 23.6063 158.87 23.6032 158.963 23.6115C159.092 23.627 159.218 23.6239 159.342 23.6042C159.466 23.5841 159.61 23.5271 159.776 23.4319C160.033 23.2829 160.257 23.0485 160.448 22.7282C160.639 22.4084 160.735 22.0178 160.735 21.5567C160.735 21.1102 160.647 20.8391 160.471 20.7444C160.296 20.6492 160.041 20.6988 159.706 20.8924L159.404 21.0667C159.342 21.1024 159.297 21.0999 159.269 21.0574C159.24 21.015 159.226 20.9286 159.226 20.7977V20.6642C159.226 20.5333 159.24 20.4324 159.269 20.361C159.297 20.2896 159.342 20.2358 159.404 20.2L159.659 20.0526C159.865 19.9336 160.036 19.7711 160.174 19.5652C160.311 19.3587 160.41 19.1445 160.471 18.9235C160.533 18.7021 160.565 18.5018 160.565 18.3233C160.565 18.062 160.504 17.8731 160.383 17.7578C160.262 17.6419 160.061 17.6641 159.783 17.825C159.628 17.9146 159.497 18.0139 159.392 18.1226C159.286 18.2323 159.19 18.343 159.103 18.4553C159.014 18.5681 158.96 18.6307 158.94 18.6421C158.888 18.6721 158.826 18.6322 158.754 18.522C158.681 18.4128 158.646 18.3063 158.646 18.2033C158.646 18.031 158.781 17.8085 159.052 17.5358C159.323 17.2621 159.602 17.0421 159.891 16.875C160.345 16.6132 160.705 16.564 160.97 16.727C161.236 16.89 161.369 17.2496 161.369 17.8074C161.369 18.1784 161.298 18.5287 161.157 18.8583C161.014 19.1879 160.828 19.4813 160.595 19.7395V19.7804C160.869 19.7328 161.096 19.8218 161.276 20.0479C161.457 20.2735 161.547 20.6378 161.547 21.1397C161.547 21.5935 161.477 22.023 161.334 22.4281C161.193 22.8333 160.998 23.1898 160.75 23.4981C160.503 23.806 160.224 24.0492 159.914 24.2282C159.688 24.3592 159.463 24.4595 159.241 24.5289Z" fill="#273E47"/>
<path d="M162.174 22.6138V21.861C162.174 21.6892 162.287 21.5376 162.515 21.4067L162.685 21.3084C162.911 21.1775 163.026 21.1976 163.026 21.3694V22.1223C163.026 22.2946 162.911 22.4462 162.685 22.5771L162.515 22.6754C162.287 22.8063 162.174 22.7862 162.174 22.6138Z" fill="#273E47"/>
<path d="M163.629 21.7741V21.0212C163.629 20.8494 163.742 20.6978 163.969 20.5664L164.139 20.4686C164.366 20.3377 164.48 20.3579 164.48 20.5297V21.2825C164.48 21.4548 164.366 21.6064 164.139 21.7373L163.969 21.8356C163.742 21.9665 163.629 21.9464 163.629 21.7741Z" fill="#273E47"/>
<path d="M165.083 20.9343V20.1814C165.083 20.0096 165.197 19.858 165.424 19.7266L165.594 19.6288C165.821 19.4979 165.935 19.5181 165.935 19.6899V20.4427C165.935 20.615 165.821 20.7666 165.594 20.8975L165.424 20.9958C165.197 21.1267 165.083 21.1061 165.083 20.9343Z" fill="#273E47"/>
</g>
<defs>
<clipPath id="clip0_37_169">
<rect width="244" height="235.876" fill="white"/>
</clipPath>
</defs>
</svg>
